<?xml version="1.0" standalone="no"?>
<!DOCTYPE svg PUBLIC "-//W3C//DTD SVG 1.1//EN" "http://www.w3.org/Graphics/SVG/1.1/DTD/svg11.dtd">
<svg xmlns="http://www.w3.org/2000/svg">
<defs >
<font id="AdventPro" horiz-adv-x="484" ><font-face
    font-family="Advent Pro Medium"
    units-per-em="1000"
    panose-1="2 0 5 6 4 0 0 2 0 4"
    ascent="964"
    descent="-232"
    alphabetic="0" />
<glyph unicode=" " glyph-name="space" horiz-adv-x="278" />
<glyph unicode="!" glyph-name="exclam" horiz-adv-x="240" d="M79 663Q79 684 88 697T119 710Q141 710 150 697T160 664L147 120H91L79 663ZM157 22T146 11T118 0Q103 0 92 11T80 38Q80 54 91 65T118 76Q134 76 145 65T157 38Q157 22 146 11Z" />
<glyph unicode="&quot;" glyph-name="quotedbl" horiz-adv-x="426" d="M105 698Q105 716 116 726T143 736Q158 736 169 726T180 698L166 512H119L105 698ZM249 698Q249 716 260 726T287 736Q302 736 313 726T324 698L310 512H263L249 698Z" />
<glyph unicode="#" glyph-name="numbersign" horiz-adv-x="613" d="M356 0H284L326 183H207L165 0H95L137 183H34V252H154L188 396H34V469H205L259 700H329L275 469H394L448 700H521L467 469H582V396H449L415 252H582V183H399L356 0ZM258 396L224 252H342L377 396H258Z" />
<glyph unicode="$" glyph-name="dollar" horiz-adv-x="540" d="M235 -9Q172 -2 127 26T59 94T34 178L109 183Q113 140 147 106T235 63V353Q177 374 139 395T77 451T52 538Q52 577 72 613T133 674T235 707V817H307V709Q343 707 369 700T423 680L401 612Q356 633
307 636V403Q369 379 411 355T481 291T509 193Q509 108 460 54T307 -9V-114H235V-9ZM185 626T157 601T128 535Q128 498 156 475T235 432V634Q185 626 157 601ZM363 71T397 102T431 186Q431 237 399 267T307 323V62Q363 71 397 102Z" />
<glyph unicode="%" glyph-name="percent" horiz-adv-x="676" d="M590 741L645 693L83 0L34 49L590 741ZM146 439T113 458T61 511T41 583Q41 622 60 655T113 707T185 727Q224 727 257 708T309 655T329 583Q329 544 310 511T257 459T185 439Q146 439 113 458ZM262
613T241 636T185 659Q151 659 130 636T109 583Q109 553 130 530T185 507Q219 507 240 530T262 583Q262 613 241 636ZM457 -11T424 8T372 61T352 133Q352 172 371 205T424 257T496 277Q535 277 568 258T620 205T640 133Q640 94 621 61T568 9T496 -11Q457 -11 424
8ZM572 163T551 186T496 209Q462 209 441 186T420 133Q420 103 441 80T496 57Q530 57 551 80T572 133Q572 163 551 186Z" />
<glyph unicode="&amp;" glyph-name="ampersand" horiz-adv-x="552" d="M446 -3T417 18T374 73Q323 -11 213 -11Q157 -11 117 15T56 85T35 181Q35 284 93 339T232 428Q197 437 173 474T148 560Q148 605 170 639T230 692T312 711Q346 711 381 699L340 638Q323 644
307 644Q270 644 246 620T221 561Q221 515 251 491T319 466Q325 466 337 468L359 472V605L432 609V484L505 500L521 430L432 411V154Q432 115 448 86T498 45L482 -11Q446 -3 417 18ZM257 371T186 328T107 201Q106 194 106 181Q106 127 136 94T220 60Q262 60 293
83T342 143T359 220V395Q257 371 186 328Z" />
<glyph unicode="&apos;" glyph-name="quotesingle" horiz-adv-x="173" d="M46 698Q46 716 57 726T84 736Q99 736 110 726T121 698L107 589H60L46 698Z" />
<glyph unicode="(" glyph-name="parenleft" horiz-adv-x="297" d="M148 -95T125 -73T90 -16T78 71V627Q78 680 90 714T125 772T187 817L216 765Q184 746 167 714T150 627V71Q150 12 167 -16T217 -68L187 -118Q148 -95 125 -73Z" />
<glyph unicode=")" glyph-name="parenright" horiz-adv-x="297" d="M111 -45T128 -17T145 71V627Q145 682 128 714T78 765L107 817Q146 794 169 772T204 715T217 627V71Q217 18 205 -16T169 -72T107 -118L78 -68Q111 -45 128 -17Z" />
<glyph unicode="*" glyph-name="asterisk" horiz-adv-x="352" d="M175 515L118 412L57 455L130 541L21 571L45 635L148 587L138 700H211L201 587L304 636L332 570L219 541L294 454L234 412L175 515Z" />
<glyph unicode="+" glyph-name="plus" horiz-adv-x="385" d="M158 343H34V413H158V545H230V413H354V343H230V216H158V343Z" />
<glyph unicode="," glyph-name="comma" horiz-adv-x="165" d="M29 -44T44 -32T66 -13T74 -3L63 0Q50 8 46 19T41 40Q42 56 54 66T83 76Q99 75 110 61T122 32Q122 -28 57 -84L8 -56Q29 -44 44 -32Z" />
<glyph unicode="-" glyph-name="hyphen" horiz-adv-x="410" d="M45 413H365V343H45V413Z" />
<glyph unicode="." glyph-name="period" horiz-adv-x="127" d="M30 0T19 11T8 38Q8 54 19 65T46 76Q62 76 73 65T84 38Q84 22 73 11T46 0Q30 0 19 11Z" />
<glyph unicode="/" glyph-name="slash" horiz-adv-x="441" d="M345 817H421L98 -114H21L345 817Z" />
<glyph unicode="0" glyph-name="zero" horiz-adv-x="549" d="M483 84T422 37T274 -11Q220 -11 172 8T94 72T63 185V507Q63 610 119 663T275 716Q374 716 428 660T483 506V185Q483 84 422 37ZM411 571T376 607T273 643Q206 643 171 608T135 502V191Q135 127 173
94T273 60Q335 60 373 93T411 193V502Q411 571 376 607Z" />
<glyph unicode="1" glyph-name="one" horiz-adv-x="221" d="M128 608Q114 596 94 588T59 576T39 571L21 637Q21 636 40 641T84 660T128 700H201V0H128V608Z" />
<glyph unicode="2" glyph-name="two" horiz-adv-x="399" d="M21 67L267 438Q302 491 302 539Q302 584 272 612T200 640Q165 640 138 618T100 560L35 590Q54 642 97 676T203 710Q253 710 292 689T354 630T376 545Q376 477 332 410L105 67H379V0H21V67Z" />
<glyph unicode="3" glyph-name="three" horiz-adv-x="431" d="M93 96T126 78T197 59Q237 59 269 78T320 130T338 201Q338 261 296 300T189 343H79L271 628H66V700H354V633L207 413H210Q264 411 310 383T383 307T411 201Q411 143 383 94T305 17T198 -12Q144 -12
97 13T21 83L74 127Q93 96 126 78Z" />
<glyph unicode="4" glyph-name="four" horiz-adv-x="500" d="M336 343H21L214 700H289L141 413H336V700H408V413H480L461 343H408V0H336V343Z" />
<glyph unicode="5" glyph-name="five" horiz-adv-x="431" d="M121 60T198 60Q239 60 271 79T320 130T338 201Q338 241 318 273T263 324T185 343H51L89 700H355V628H155L132 413H198Q256 413 305 385T382 308T411 201Q411 143 383 94T305 17T198 -12Q144 -12 97
13T21 83L74 128Q121 60 198 60Z" />
<glyph unicode="6" glyph-name="six" horiz-adv-x="466" d="M21 516T44 570T122 662T265 700H300V628H265Q193 628 143 586T92 450V348Q112 378 151 395T233 413Q291 413 340 385T417 308T446 201Q446 143 418 94T340 17T233 -12Q175 -12 127 16T50 94T21 201V461Q21
516 44 570ZM92 162T110 130T161 78T233 59Q271 59 303 78T355 129T374 201Q374 240 355 272T304 322T233 341Q175 341 134 302T92 206V201Q92 162 110 130Z" />
<glyph unicode="7" glyph-name="seven" horiz-adv-x="441" d="M339 628H26V700H420V628L109 0H30L339 628Z" />
<glyph unicode="8" glyph-name="eight" horiz-adv-x="467" d="M385 360T416 311T447 201Q447 143 419 94T341 17T234 -12Q176 -12 127 16T50 94T21 201Q21 262 52 312T135 389Q100 413 80 450T60 533Q60 581 83 621T147 685T235 709Q283 709 323 686T387 622T411
533Q411 488 391 450T334 388Q385 360 416 311ZM276 429T308 459T340 533Q340 577 309 608T235 639Q191 639 160 608T128 533Q128 490 157 461T230 429Q276 429 308 459ZM272 60T304 79T355 130T374 201Q374 260 334 300T228 342Q171 341 132 300T93 201Q93 163
112 131T163 79T234 60Q272 60 304 79Z" />
<glyph unicode="9" glyph-name="nine" horiz-adv-x="466" d="M167 69H206Q252 69 290 89T351 151T374 251V342Q319 285 234 285Q176 285 127 313T50 390T21 497Q21 555 49 604T127 681T234 710Q292 710 340 682T417 604T446 497V239Q446 184 423 130T345 38T202
0H167V69ZM272 356T304 374T355 426T374 502Q374 539 355 570T304 620T234 639Q195 639 163 620T111 568T92 497Q92 459 111 427T162 375T234 356Q272 356 304 374Z" />
<glyph unicode=":" glyph-name="colon" horiz-adv-x="121" d="M45 339T33 351T21 379Q21 395 33 406T61 418Q77 418 88 407T100 379Q100 363 89 351T61 339Q45 339 33 351ZM100 134T88 123T60 111Q44 111 33 122T21 150Q21 166 32 178T60 190Q77 190 88 179T100
150Q100 134 88 123Z" />
<glyph unicode=";" glyph-name="semicolon" horiz-adv-x="155" d="M79 230T68 241T56 268Q56 285 67 296T95 307Q111 307 122 296T133 268Q133 252 122 241T95 230Q79 230 68 241ZM42 -44T56 -32T78 -13T86 -3L76 0Q63 8 59 19T54 40Q55 56 67 66T95 76Q112 75
123 61T134 32Q135 0 118 -28T69 -84L21 -56Q42 -44 56 -32Z" />
<glyph unicode="&lt;" glyph-name="less" horiz-adv-x="369" d="M21 358V359L299 637L348 589L116 358L348 126L299 80L21 358Z" />
<glyph unicode="=" glyph-name="equal" horiz-adv-x="361" d="M21 428H341V358H21V428ZM21 308H341V238H21V308Z" />
<glyph unicode="&gt;" glyph-name="greater" horiz-adv-x="369" d="M253 358L21 589L70 637L348 359V358L70 80L21 126L253 358Z" />
<glyph unicode="?" glyph-name="question" horiz-adv-x="401" d="M152 212Q152 258 163 292T192 349T236 401Q264 431 275 447Q304 488 304 532Q304 578 274 609T202 640Q154 640 124 612T93 532H21Q21 580 41 620T101 685T199 709Q249 709 290 685T355 620T379
531Q379 472 343 420Q321 389 288 356Q263 331 251 313T230 264T221 182Q221 182 221 145V119H152V212ZM224 22T213 11T186 0Q170 0 159 11T148 38Q148 54 159 65T186 76Q202 76 213 65T224 38Q224 22 213 11Z" />
<glyph unicode="@" glyph-name="at" horiz-adv-x="726" d="M599 388T602 414T624 462T684 496L705 442Q684 434 676 416T668 370L669 173Q669 82 615 27T482 -51T323 -74Q240 -74 171 -45T62 42T21 183V342Q21 448 79 503T214 575Q263 586 313 586Q409 586 472
542T536 399L573 383V317L536 333V91Q408 54 325 54Q161 54 151 204V305Q151 365 173 399T239 449Q274 461 310 461Q381 461 462 424Q456 475 417 498T323 521Q222 521 156 478T90 338V190Q90 87 159 41T331 -6Q402 -6 463 12T561 69T599 162V341Q599 388 602 414ZM432
372T394 383T321 394Q276 394 249 372T221 300V215Q221 170 249 144T335 118Q389 118 464 143V356Q432 372 394 383Z" />
<glyph unicode="A" glyph-name="A" horiz-adv-x="527" d="M367 226H159L93 0H15L221 700H304L517 0H436L367 226ZM178 300H349L262 584L178 300Z" />
<glyph unicode="B" glyph-name="B" horiz-adv-x="546" d="M78 700H294Q376 700 425 657T475 528Q475 489 462 454T409 391L408 389V388Q452 368 481 324T511 208Q511 123 463 62T305 0H78V700ZM335 413T365 440T396 523Q396 583 364 606T277 630H150V413H279Q335
413 365 440ZM356 67T393 98T431 211Q431 277 394 310T303 343H150V67H289Q356 67 393 98Z" />
<glyph unicode="C" glyph-name="C" horiz-adv-x="434" d="M338 -10T261 -10Q174 -10 120 36T66 183V504Q66 580 87 619T153 685Q197 710 261 710Q339 710 402 677L381 620Q327 640 276 640Q221 640 180 612T138 513V185Q138 122 173 91T272 60Q334 60 413 87L427
23Q338 -10 261 -10Z" />
<glyph unicode="D" glyph-name="D" horiz-adv-x="576" d="M78 701H266Q379 701 438 639T498 474V200Q498 0 286 0H78V701ZM426 559T383 595T276 632H150V65H270Q337 65 381 90T426 190V484Q426 559 383 595Z" />
<glyph unicode="E" glyph-name="E" horiz-adv-x="465" d="M78 700H412V631H150V413H325L302 343H150V65H410V0H78V700Z" />
<glyph unicode="F" glyph-name="F" horiz-adv-x="447" d="M78 700H412V630H150V413H312L285 343H150V0H78V700Z" />
<glyph unicode="G" glyph-name="G" horiz-adv-x="537" d="M404 31Q356 -10 276 -10Q220 -10 172 11T95 77T65 189V503Q65 573 87 615T152 684Q196 709 260 709Q338 709 401 676L380 620Q326 640 277 640Q137 640 137 512V187Q137 126 175 94T275 61Q333 61 369
94T406 186V230H343L319 300H476V0H416L404 31Z" />
<glyph unicode="H" glyph-name="H" horiz-adv-x="588" d="M436 343H150V0H78V700H150V413H436V700H508V0H436V343Z" />
<glyph unicode="I" glyph-name="I" horiz-adv-x="279" d="M130 632L64 634V700H202V0H130V632Z" />
<glyph unicode="J" glyph-name="J" horiz-adv-x="207" d="M40 17T67 41T94 127V632L29 634V700H166V124Q166 44 132 4T25 -37L5 17Q40 17 67 41Z" />
<glyph unicode="K" glyph-name="K" horiz-adv-x="492" d="M189 325L154 269V0H79V701H154V395L359 701H444L234 391L492 0H404L189 325Z" />
<glyph unicode="L" glyph-name="L" horiz-adv-x="440" d="M78 700H150V65H439V0H78V700Z" />
<glyph unicode="M" glyph-name="M" horiz-adv-x="694" d="M542 485L379 0H311L150 485V0H78V700H150L345 131L542 700H614V0H542V485Z" />
<glyph unicode="N" glyph-name="N" horiz-adv-x="650" d="M150 560V0H78V700H150L497 141V700H570V0H497L150 560Z" />
<glyph unicode="O" glyph-name="O" horiz-adv-x="549" d="M483 84T422 37T274 -11Q220 -11 172 8T94 72T63 185V507Q63 610 119 663T275 716Q374 716 428 660T483 506V185Q483 84 422 37ZM411 571T376 607T273 643Q206 643 171 608T135 502V191Q135 127 173 94T273
60Q335 60 373 93T411 193V502Q411 571 376 607Z" />
<glyph unicode="P" glyph-name="P" horiz-adv-x="547" d="M78 700H319Q417 700 464 639T512 479Q512 416 501 364T449 271T326 230H150V0H78V700ZM372 300T399 327T433 391T440 472Q440 555 407 592T313 630H150V300H317Q372 300 399 327Z" />
<glyph unicode="Q" glyph-name="Q" horiz-adv-x="549" d="M299 -102T257 -10Q178 -6 121 40T63 185V507Q63 610 119 663T275 716Q374 716 428 660T483 506V185Q483 99 439 53T330 -5Q343 -21 366 -28T429 -35L425 -101Q299 -102 257 -10ZM411 574T375 609T273
644Q207 644 171 610T135 513V186Q135 135 163 100T239 60Q236 78 236 117V174H308V118Q308 78 310 61Q357 66 384 100T411 187V513Q411 574 375 609Z" />
<glyph unicode="R" glyph-name="R" horiz-adv-x="564" d="M360 232Q342 230 328 230H150V0H78V700H321Q417 700 464 639T512 479Q512 404 497 347T427 255L513 0H439L360 232ZM373 300T399 328T431 393T438 476Q438 630 310 630H150V300H319Q373 300 399 328Z" />
<glyph unicode="S" glyph-name="S" horiz-adv-x="561" d="M115 151T135 123T191 77T272 59Q343 59 388 91T434 186Q434 230 410 259T351 306T255 347Q190 371 150 391T83 447T55 538Q55 582 80 621T155 685T280 710Q329 710 361 703T426 680L404 612Q342 639 282
639Q211 639 171 611T131 533Q131 503 152 482T204 445T288 411Q359 385 404 362T480 297T512 193Q512 101 454 45T273 -11Q199 -11 147 16T67 87T37 178L112 183Q115 151 135 123Z" />
<glyph unicode="T" glyph-name="T" horiz-adv-x="402" d="M162 632H0V700H402V632H234V0H162V632Z" />
<glyph unicode="U" glyph-name="U" horiz-adv-x="566" d="M495 701V186Q495 85 434 39T285 -7Q198 -7 136 39T74 186V701H146V194Q146 132 183 96T284 60Q348 60 385 96T423 194V701H495Z" />
<glyph unicode="V" glyph-name="V" horiz-adv-x="591" d="M78 700H157L317 113L476 700H556L364 0H271L78 700Z" />
<glyph unicode="W" glyph-name="W" horiz-adv-x="809" d="M427 525L332 0H234L78 700H156L281 124L388 700H466L573 124L694 700H774L620 0H523L427 525Z" />
<glyph unicode="X" glyph-name="X" horiz-adv-x="648" d="M341 279L167 0H78L298 351L95 700H178L342 425L506 700H590L386 354L606 0H515L341 279Z" />
<glyph unicode="Y" glyph-name="Y" horiz-adv-x="556" d="M391 49T409 73T427 156V272Q403 252 364 241T285 230Q180 230 118 284T56 441V700H129V437Q129 370 171 336T285 301Q340 301 378 322T427 383V700H500V156Q500 4 382 -11L362 40Q391 49 409 73Z" />
<glyph unicode="Z" glyph-name="Z" horiz-adv-x="550" d="M31 65L421 631H44V700H512V632L122 67H518V0H31V65Z" />
<glyph unicode="[" glyph-name="bracketleft" horiz-adv-x="319" d="M78 817H239V754L150 744V-41L239 -51V-114H78V817Z" />
<glyph unicode="\" glyph-name="backslash" horiz-adv-x="513" d="M72 817H148L472 -114H395L72 817Z" />
<glyph unicode="]" glyph-name="bracketright" horiz-adv-x="319" d="M78 -51L167 -41V744L78 754V817H239V-114H78V-51Z" />
<glyph unicode="^" glyph-name="asciicircum" horiz-adv-x="403" d="M225 817L124 719L78 758L226 899L368 758L321 719L225 817Z" />
<glyph unicode="_" glyph-name="underscore" horiz-adv-x="350" d="M73 0H393V-61H73V0Z" />
<glyph unicode="`" glyph-name="grave" horiz-adv-x="222" d="M54 673Q46 684 46 696Q46 707 52 716T69 729Q77 731 82 731Q94 731 104 725T120 705L170 590H117L54 673Z" />
<glyph unicode="a" glyph-name="a" horiz-adv-x="458" d="M314 -11T266 -11Q161 -11 99 28T37 169V252Q37 351 106 385Q139 401 187 401Q231 401 276 388T350 353Q350 456 209 456L214 509Q310 509 355 479T411 406T422 298V0Q314 -11 266 -11ZM315 305T273 318T196
332Q109 332 109 246V168Q109 54 265 54Q296 54 350 61V288Q315 305 273 318Z" />
<glyph unicode="b" glyph-name="b" horiz-adv-x="482" d="M447 106T426 71T369 18Q337 2 305 -5T235 -12Q198 -12 133 -5L78 0V700H150V482Q172 495 203 502T266 509Q321 509 362 490Q447 451 447 346V157Q447 106 426 71ZM376 391T344 416T261 441Q231 441 201
433T150 412V62Q186 55 229 55Q294 55 335 78T376 156V335Q376 391 344 416Z" />
<glyph unicode="c" glyph-name="c" horiz-adv-x="383" d="M296 -10T238 -10Q184 -10 148 2Q89 22 63 63T36 180V308Q36 407 88 458T222 510Q287 510 356 478L336 421Q279 443 234 443Q177 443 143 411T108 314V169Q108 110 146 84T245 57Q292 57 341 70L358 6Q296
-10 238 -10Z" />
<glyph unicode="d" glyph-name="d" horiz-adv-x="482" d="M78 451T163 490Q204 509 259 509Q293 509 324 502T375 481V700H447V0L392 -5Q327 -12 290 -12Q253 -12 221 -5T156 18Q120 36 99 71T78 157V346Q78 451 163 490ZM351 425T322 433T264 441Q213 441 181
415T149 332V154Q149 102 188 79T291 55Q329 55 375 63V412Q351 425 322 433Z" />
<glyph unicode="e" glyph-name="e" horiz-adv-x="434" d="M334 12T288 0T196 -12Q122 -12 79 24T35 134V339Q35 420 85 465T219 510Q302 510 348 466T395 342V205L107 190V138Q107 96 133 75T204 54Q269 54 343 94L370 35Q334 12 288 0ZM322 399T289 421T218 444Q168
444 138 417T107 338V258L322 269V346Q322 399 289 421Z" />
<glyph unicode="f" glyph-name="f" horiz-adv-x="303" d="M78 549Q78 634 121 672T228 711Q242 711 268 707L257 643Q239 645 232 645Q194 645 173 622T151 549V501H257L233 433H151V0H78V549Z" />
<glyph unicode="g" glyph-name="g" horiz-adv-x="448" d="M342 -135T342 -58V45Q308 -12 223 -12Q135 -12 86 36T37 176V325Q37 413 88 461T227 510Q267 510 297 497T345 457L348 501H414V-64Q414 -127 386 -162T292 -210L274 -154Q342 -135 342 -58ZM342 385T309
413T223 442Q174 442 142 412T109 320V174Q109 117 139 87T223 56Q277 56 309 90T342 190V330Q342 385 309 413Z" />
<glyph unicode="h" glyph-name="h" horiz-adv-x="493" d="M361 332Q361 391 329 417T247 443Q218 443 188 435T136 414V0H64V700H136V481Q157 494 188 501T254 509Q311 509 348 491Q388 473 410 437T433 346V0H361V332Z" />
<glyph unicode="i" glyph-name="i" horiz-adv-x="240" d="M103 628T91 640T78 669Q78 685 90 697T120 710Q136 710 148 698T160 669Q160 652 148 640T120 628Q103 628 91 640ZM82 501H154V0H82V501Z" />
<glyph unicode="j" glyph-name="j" horiz-adv-x="206" d="M90 628T78 640T65 669Q65 686 77 698T107 710Q124 710 135 698T147 669Q147 652 135 640T107 628Q90 628 78 640ZM22 437L0 501H141V-75Q139 -132 102 -170T9 -209L-5 -153Q-5 -156 15 -147T52 -116T69
-50V432L22 437Z" />
<glyph unicode="k" glyph-name="k" horiz-adv-x="446" d="M179 298L138 262V0H66V700H138V349L323 520L375 470L232 346Q305 225 447 0H358L179 298Z" />
<glyph unicode="l" glyph-name="l" horiz-adv-x="230" d="M78 700H150V0H78V700Z" />
<glyph unicode="m" glyph-name="m" horiz-adv-x="737" d="M630 331Q630 389 604 416T532 443Q497 443 454 427L423 412Q436 384 436 349V0H364V330Q364 388 335 415T258 442Q205 442 150 412V0H78V501H146L147 476Q205 508 265 508Q339 508 385 461Q399 469 427
483Q486 510 541 510Q612 510 657 467T702 346V0H630V331Z" />
<glyph unicode="n" glyph-name="n" horiz-adv-x="500" d="M361 335Q361 389 329 415T246 442Q218 442 189 435T136 413V0H64V501H132L133 475Q156 491 188 500T257 509Q309 509 348 491Q388 473 410 437T433 346V0H361V335Z" />
<glyph unicode="o" glyph-name="o" horiz-adv-x="486" d="M451 100T405 45T266 -10Q173 -10 126 45T78 184V316Q78 411 126 461T266 512Q353 512 402 460T451 316V184Q451 100 405 45ZM379 443T266 443Q213 443 182 413T150 316V174Q150 120 181 89T266 57Q319
57 349 88T379 174V316Q379 443 266 443Z" />
<glyph unicode="p" glyph-name="p" horiz-adv-x="490" d="M78 501H148L147 463Q168 485 200 497T265 509Q358 509 406 455T455 315V176Q455 85 404 37T269 -12Q228 -12 201 -3T150 30V-188L78 -210V501ZM383 382T351 411T269 441Q219 441 186 412T150 324V173Q150
116 181 87T269 57Q321 57 352 87T383 177V319Q383 382 351 411Z" />
<glyph unicode="q" glyph-name="q" horiz-adv-x="448" d="M342 30Q320 7 292 -2T223 -12Q139 -12 88 36T37 176V314Q37 400 85 454T227 509Q261 509 291 497T346 461L344 501H414V-210L342 -188V30ZM340 386T305 413T223 441Q178 441 144 413T109 313V170Q109
115 140 86T223 57Q280 57 311 86T342 174V321Q340 386 305 413Z" />
<glyph unicode="r" glyph-name="r" horiz-adv-x="347" d="M61 501H131V475Q178 510 242 510Q274 510 320 500L302 432Q272 443 239 443Q195 443 164 425T133 371V0H61V501Z" />
<glyph unicode="s" glyph-name="s" horiz-adv-x="431" d="M110 93T143 73T221 52Q262 52 293 71T325 130Q325 157 310 175T271 203T206 228Q157 245 128 258T76 298T48 365L47 377Q47 410 65 441T122 493T219 513Q251 513 275 507T314 493T331 484L308 421Q305
423 295 429T264 440T219 446Q172 446 145 425T122 368Q125 341 151 326T232 291Q285 273 318 257T375 210T399 130Q399 68 354 27T221 -15Q164 -15 123 4T60 56T36 127L106 130Q110 93 143 73Z" />
<glyph unicode="t" glyph-name="t" horiz-adv-x="252" d="M100 -1T72 35T44 132V700H117V501H229L205 433H117V132Q117 61 185 43L164 -13Q100 -1 72 35Z" />
<glyph unicode="u" glyph-name="u" horiz-adv-x="447" d="M340 37Q319 14 288 2T224 -11Q36 -11 36 172V501H108V172Q108 114 138 86T224 57Q337 57 337 173V501H409V0H340V37Z" />
<glyph unicode="v" glyph-name="v" horiz-adv-x="433" d="M16 501H93L214 99L336 501H413L257 0H171L16 501Z" />
<glyph unicode="w" glyph-name="w" horiz-adv-x="706" d="M351 364L258 0H172L16 501H93L214 99L317 501H388L491 99L609 501H686L529 0H443L351 364Z" />
<glyph unicode="x" glyph-name="x" horiz-adv-x="508" d="M272 180L160 0H73L229 249L73 501H159L273 318L388 501H473L315 249L470 0H385L272 180Z" />
<glyph unicode="y" glyph-name="y" horiz-adv-x="488" d="M342 -134T342 -61V35Q324 11 292 0T220 -12Q132 -12 85 35T37 176V501H108V178Q108 57 220 57Q341 57 341 178V363Q341 422 359 459T431 510L454 456Q433 449 423 430T412 385V-61Q412 -123 386 -159T298
-210L275 -154Q342 -134 342 -61Z" />
<glyph unicode="z" glyph-name="z" horiz-adv-x="480" d="M78 66L333 434H87V501H427V436L170 67H445V0H78V66Z" />
<glyph unicode="{" glyph-name="braceleft" horiz-adv-x="325" d="M220 -93T196 -67T162 4T152 134V247Q152 274 131 299T78 354Q102 373 126 404T150 462V567Q150 651 160 698T194 773T267 822L288 768Q222 733 222 636V456Q222 430 204 403T164 355Q224 295
224 253V72Q224 17 241 -14T290 -60L268 -116Q220 -93 196 -67Z" />
<glyph unicode="|" glyph-name="bar" horiz-adv-x="230" d="M78 817H150V-114H78V817Z" />
<glyph unicode="}" glyph-name="braceright" horiz-adv-x="325" d="M109 -45T126 -14T144 72V253Q144 295 204 355Q183 376 165 403T146 456V636Q146 733 80 768L101 822Q149 801 173 774T208 699T218 567V462Q218 435 242 404T290 354Q258 325 237 300T216 247V134Q216
50 206 5T172 -67T100 -116L78 -60Q109 -45 126 -14Z" />
<glyph unicode="~" glyph-name="asciitilde" horiz-adv-x="523" d="M445 275T381 275Q348 275 286 293Q255 302 235 306T195 311Q144 311 109 271L78 319Q124 375 190 375Q211 375 233 371T287 357Q310 351 333 346T375 341Q423 341 456 379L488 331Q445 275 381 275Z" />
<glyph unicode="&#xa1;" glyph-name="exclamdown" horiz-adv-x="240" d="M103 633T92 644T80 672Q80 688 91 699T118 710Q134 710 145 699T157 672Q157 656 146 645T118 633Q103 633 92 644ZM147 590L160 46Q160 26 151 13T119 0Q98 0 89 13T79 47L91 590H147Z" />
<glyph unicode="&#xa2;" glyph-name="cent" horiz-adv-x="435" d="M232 -7Q210 -4 190 2Q131 22 105 63T78 180V308Q78 397 120 448T232 508V623H303V507Q348 500 398 478L378 421Q341 435 303 440V57Q347 60 383 70L400 6Q347 -7 303 -10V-114H232V-7ZM194 426T172
395T150 314V169Q150 84 232 63V437Q194 426 172 395Z" />
<glyph unicode="&#xa3;" glyph-name="sterling" horiz-adv-x="473" d="M78 65Q131 83 161 126T192 225Q192 254 178 303H101V374H155Q140 419 133 450T125 515Q125 573 150 617T219 685T318 709Q387 709 427 684L404 620Q364 642 318 642Q262 642 229 605T196
513Q196 488 204 459T230 374H421V303H253Q266 253 265 221Q259 124 194 69H438V0H78V65Z" />
<glyph unicode="&#xa4;" glyph-name="currency" horiz-adv-x="475" d="M316 148T259 148Q203 148 161 179L127 142L82 188L115 222Q101 242 93 268T84 323Q84 374 114 420L80 455L128 501L160 467Q202 499 259 499Q317 499 357 469L390 502L438 454L404 422Q435
375 435 323Q435 294 427 271T403 221L437 188L392 143L357 178Q316 148 259 148ZM367 368T335 399T259 431Q214 431 183 400T151 323Q151 279 182 248T259 217Q303 217 335 248T367 323Q367 368 335 399Z" />
<glyph unicode="&#xa5;" glyph-name="yen" horiz-adv-x="585" d="M278 238H155V308H278V332L264 358H155V428H226L78 700H157L305 428H320L471 700H550L401 428H475V358H363L350 334V308H475V238H350V0H278V238Z" />
<glyph unicode="&#xa7;" glyph-name="section" horiz-adv-x="588" d="M154 -37T173 -65T229 -111T313 -129Q380 -129 428 -99T477 -1Q477 39 454 65T398 108T304 146Q236 170 195 191T124 250T95 346Q95 403 128 445Q96 485 96 540Q96 584 121 623T196 687T321
712Q370 712 402 705T467 682L444 614Q387 643 323 643Q249 643 210 615T170 537Q170 506 190 485T242 449T327 416Q398 392 443 370T521 306T553 200Q553 170 547 142T530 92Q553 57 553 6Q553 -86 495 -141T314 -197Q240 -197 188 -170T108 -99T78 -8H152Q154
-37 173 -65ZM479 175T479 198Q479 240 454 268T392 314T295 352Q252 367 228 377T184 401Q169 378 169 342Q169 307 190 284T244 245T333 211Q385 193 415 181T472 149Q479 175 479 198Z" />
<glyph unicode="&#xa8;" glyph-name="dieresis" horiz-adv-x="222" d="M73 685T62 675T36 664Q21 664 11 674T0 700Q0 715 10 726T36 737Q51 737 62 726T73 700Q73 685 62 675ZM170 664T160 674T149 701Q149 716 159 726T185 737Q200 737 211 727T222 701Q222
685 211 675T185 664Q170 664 160 674Z" />
<glyph unicode="&#xa9;" glyph-name="copyright" horiz-adv-x="800" d="M299 -127T213 -78T76 58T25 249Q25 353 75 438T211 572T401 621Q504 621 589 572T724 438T774 249Q774 144 724 58T588 -77T401 -127Q299 -127 213 -78ZM483 -56T551 -17T660 91T700 249Q700
332 660 401T551 510T401 550Q318 550 249 512T140 405T100 249Q100 160 140 91T249 -17T401 -56Q483 -56 551 -17ZM583 103T529 60T405 16Q339 16 291 46T217 128T191 247Q191 309 216 361T289 446T403 478Q476 478 531 435T598 323H522Q514 357 481 380T403 403Q334
403 300 359T266 249Q266 180 301 135T404 90Q450 90 484 114T522 175H599Q583 103 529 60Z" />
<glyph unicode="&#xaa;" glyph-name="ordfeminine" horiz-adv-x="382" d="M265 379T230 379Q158 379 118 410T78 519Q78 571 105 601T179 631Q230 631 284 597Q284 628 261 645T176 661L181 709Q249 710 285 693T334 643T347 555V391Q265 379 230 379ZM221 575T186
575Q135 575 135 513Q135 473 159 454T224 435Q250 435 284 443V541Q221 575 186 575Z" />
<glyph unicode="&#xab;" glyph-name="guillemotleft" horiz-adv-x="498" d="M42 267V268L229 455L277 407L136 267L275 124L229 80L42 267ZM262 267V268L449 455L497 407L356 267L495 124L449 80L262 267Z" />
<glyph unicode="&#xad;" glyph-name="uni00AD" horiz-adv-x="410" d="M45 413H365V343H45V413Z" />
<glyph unicode="&#xae;" glyph-name="registered" horiz-adv-x="800" d="M299 -127T213 -78T76 58T25 249Q25 353 75 438T211 572T401 621Q504 621 589 572T724 438T774 249Q774 144 724 58T588 -77T401 -127Q299 -127 213 -78ZM483 -56T551 -17T660 91T700 249Q700
332 660 401T551 510T401 550Q318 550 249 512T140 405T100 249Q100 160 140 91T249 -17T401 -56Q483 -56 551 -17ZM397 229H339V39H268V476H414Q490 476 529 443T568 351Q568 304 543 276T468 236L577 39H498L397 229ZM443 291T469 303T496 352Q496 384 472 399T413
414H339V291H397Q443 291 469 303Z" />
<glyph unicode="&#xaf;" glyph-name="overscore" horiz-adv-x="334" d="M78 687H299V619H78V687Z" />
<glyph unicode="&#xb0;" glyph-name="degree" horiz-adv-x="401" d="M183 421T150 440T98 493T78 565Q78 604 97 637T150 689T222 709Q261 709 294 690T346 637T366 565Q366 526 347 493T294 441T222 421Q183 421 150 440ZM303 597T281 621T222 646Q186 646 164
622T141 565Q141 532 163 508T222 484Q259 484 281 508T303 565Q303 597 281 621Z" />
<glyph unicode="&#xb1;" glyph-name="plusminus" horiz-adv-x="433" d="M78 296H204V355H78V420H204V545H273V420H398V355H273V296H398V228H78V296Z" />
<glyph unicode="&#xb4;" glyph-name="acute" horiz-adv-x="222" d="M95 703Q101 716 111 722T134 729Q139 729 147 727Q158 723 164 714T170 694Q170 682 162 671L99 588H46L95 703Z" />
<glyph unicode="&#xb5;" glyph-name="uni00B5" horiz-adv-x="478" d="M389 -6T379 0T360 20Q345 4 318 -4T257 -12Q243 -12 236 -11Q176 -4 145 12T110 30V-210L37 -201V501H110V107Q116 101 136 89T188 67T252 56Q344 56 344 166V498L417 510V69Q417 64 423 50T444
27L395 -6Q389 -6 379 0Z" />
<glyph unicode="&#xb6;" glyph-name="paragraph" horiz-adv-x="685" d="M580 679L512 680V-198H441V246H255Q173 246 135 286T87 383T78 524Q78 624 124 687T264 750H650V-199H580V679Z" />
<glyph unicode="&#xb8;" glyph-name="cedilla" horiz-adv-x="254" d="M125 -155T141 -159T178 -163Q202 -163 221 -153T240 -122Q240 -107 229 -97T200 -87Q184 -87 163 -96L126 -113L104 -78L165 0H215L179 -49Q193 -42 215 -42Q249 -42 273 -63T297 -122Q297
-172 258 -194T168 -217Q128 -217 73 -197L100 -138Q125 -155 141 -159Z" />
<glyph unicode="&#xbb;" glyph-name="guillemotright" horiz-adv-x="514" d="M143 267L2 407L50 455L237 268V267L50 80L4 124L143 267ZM363 267L222 407L270 455L457 268V267L270 80L224 124L363 267Z" />
<glyph unicode="&#xbf;" glyph-name="questiondown" horiz-adv-x="472" d="M256 632T245 643T234 671Q234 687 245 698T272 709Q288 709 299 698T311 671Q311 655 300 644T272 632Q256 632 245 643ZM437 129T417 89T357 24T259 0Q209 0 168 24T103 89T79 178Q79
237 115 289Q138 321 170 353Q195 378 207 396T228 445T237 527Q237 527 237 564V590H306V497Q306 452 295 418T267 361T222 308Q198 282 183 261Q154 219 154 177Q154 131 184 100T256 69Q304 69 334 97T365 177H437Q437 129 417 89Z" />
<glyph unicode="&#xc0;" glyph-name="Agrave" horiz-adv-x="527" d="M162 816Q154 827 154 839Q154 850 160 859T177 872Q185 874 190 874Q202 874 212 868T228 848L278 733H225L162 816ZM367 226H159L93 0H15L221 700H304L517 0H436L367 226ZM178 300H349L262
584L178 300Z" />
<glyph unicode="&#xc1;" glyph-name="Aacute" horiz-adv-x="527" d="M287 846Q293 859 303 865T326 872Q331 872 339 870Q350 866 356 857T362 837Q362 825 354 814L291 731H238L287 846ZM367 226H159L93 0H15L221 700H304L517 0H436L367 226ZM178 300H349L262
584L178 300Z" />
<glyph unicode="&#xc2;" glyph-name="Acircumflex" horiz-adv-x="527" d="M266 830L165 732L119 771L267 912L409 771L362 732L266 830ZM367 226H159L93 0H15L221 700H304L517 0H436L367 226ZM178 300H349L262 584L178 300Z" />
<glyph unicode="&#xc3;" glyph-name="Atilde" horiz-adv-x="527" d="M392 729T344 729Q327 729 311 734T269 750Q246 760 230 765T198 771Q161 771 125 734L96 781Q141 833 191 833Q209 833 225 828T267 812Q293 802 307 798T336 793Q373 793 405 828L435 781Q392
729 344 729ZM367 226H159L93 0H15L221 700H304L517 0H436L367 226ZM178 300H349L262 584L178 300Z" />
<glyph unicode="&#xc4;" glyph-name="Adieresis" horiz-adv-x="527" d="M224 752T213 742T187 731Q172 731 162 741T151 767Q151 782 161 793T187 804Q202 804 213 793T224 767Q224 752 213 742ZM321 731T311 741T300 768Q300 783 310 793T336 804Q351 804 362
794T373 768Q373 752 362 742T336 731Q321 731 311 741ZM367 226H159L93 0H15L221 700H304L517 0H436L367 226ZM178 300H349L262 584L178 300Z" />
<glyph unicode="&#xc5;" glyph-name="Aring" horiz-adv-x="527" d="M367 226H159L93 0H15L212 671Q185 685 169 711T152 770Q152 816 184 848T263 881Q309 881 341 849T374 770Q374 738 357 712T313 671L517 0H436L367 226ZM287 713T303 729T319 770Q319 794 303
810T263 826Q239 826 223 810T206 770Q206 746 222 730T263 713Q287 713 303 729ZM178 300H349L262 584L178 300Z" />
<glyph unicode="&#xc6;" glyph-name="AE" horiz-adv-x="814" d="M445 230H278L158 0H78L444 700H779V631H517V413H696L673 343H517V65H777V0H444L445 230ZM314 300H445V552L314 300Z" />
<glyph unicode="&#xc7;" glyph-name="Ccedilla" horiz-adv-x="434" d="M184 -155T200 -159T237 -163Q261 -163 280 -153T299 -122Q299 -107 288 -97T259 -87Q243 -87 222 -96L185 -113L163 -78L218 -7Q148 3 107 49T66 183V504Q66 580 87 619T153 685Q197 710
261 710Q339 710 402 677L381 620Q327 640 276 640Q221 640 180 612T138 513V185Q138 122 173 91T272 60Q334 60 413 87L427 23Q345 -9 266 -10L238 -49Q252 -42 274 -42Q308 -42 332 -63T356 -122Q356 -172 317 -194T227 -217Q187 -217 132 -197L159 -138Q184
-155 200 -159Z" />
<glyph unicode="&#xc8;" glyph-name="Egrave" horiz-adv-x="465" d="M156 815Q148 826 148 838Q148 849 154 858T171 871Q179 873 184 873Q196 873 206 867T222 847L272 732H219L156 815ZM78 700H412V631H150V413H325L302 343H150V65H410V0H78V700Z" />
<glyph unicode="&#xc9;" glyph-name="Eacute" horiz-adv-x="465" d="M286 845Q292 858 302 864T325 871Q330 871 338 869Q349 865 355 856T361 836Q361 824 353 813L290 730H237L286 845ZM78 700H412V631H150V413H325L302 343H150V65H410V0H78V700Z" />
<glyph unicode="&#xca;" glyph-name="Ecircumflex" horiz-adv-x="465" d="M248 830L147 732L101 771L249 912L391 771L344 732L248 830ZM78 700H412V631H150V413H325L302 343H150V65H410V0H78V700Z" />
<glyph unicode="&#xcb;" glyph-name="Edieresis" horiz-adv-x="465" d="M204 752T193 742T167 731Q152 731 142 741T131 767Q131 782 141 793T167 804Q182 804 193 793T204 767Q204 752 193 742ZM301 731T291 741T280 768Q280 783 290 793T316 804Q331 804 342
794T353 768Q353 752 342 742T316 731Q301 731 291 741ZM78 700H412V631H150V413H325L302 343H150V65H410V0H78V700Z" />
<glyph unicode="&#xcc;" glyph-name="Igrave" horiz-adv-x="302" d="M96 815Q88 826 88 838Q88 849 94 858T111 871Q119 873 124 873Q136 873 146 867T162 847L212 732H159L96 815ZM150 632L84 634V700H222V0H150V632Z" />
<glyph unicode="&#xcd;" glyph-name="Iacute" horiz-adv-x="360" d="M205 845Q211 858 221 864T244 871Q249 871 257 869Q268 865 274 856T280 836Q280 824 272 813L209 730H156L205 845ZM143 632L77 634V700H215V0H143V632Z" />
<glyph unicode="&#xce;" glyph-name="Icircumflex" horiz-adv-x="448" d="M225 830L124 732L78 771L226 912L368 771L321 732L225 830ZM196 632L130 634V700H268V0H196V632Z" />
<glyph unicode="&#xcf;" glyph-name="Idieresis" horiz-adv-x="380" d="M151 750T140 740T114 729Q99 729 89 739T78 765Q78 780 88 791T114 802Q129 802 140 791T151 765Q151 750 140 740ZM248 729T238 739T227 766Q227 781 237 791T263 802Q278 802 289 792T300
766Q300 750 289 740T263 729Q248 729 238 739ZM165 632L99 634V700H237V0H165V632Z" />
<glyph unicode="&#xd0;" glyph-name="Eth" horiz-adv-x="640" d="M127 457H78V527H127V701H315Q412 701 470 654T542 527H605V457H547V200Q547 0 335 0H127V457ZM199 527H470Q457 580 417 606T325 632H199V527ZM199 457V65H319Q386 65 430 90T475 190V457H199Z" />
<glyph unicode="&#xd1;" glyph-name="Ntilde" horiz-adv-x="650" d="M454 728T406 728Q389 728 373 733T331 749Q308 759 292 764T260 770Q223 770 187 733L158 780Q204 832 253 832Q271 832 287 827T329 811Q355 801 369 797T398 792Q435 792 467 827L497 780Q454
728 406 728ZM150 560V0H78V700H150L497 141V700H570V0H497L150 560Z" />
<glyph unicode="&#xd2;" glyph-name="Ograve" horiz-adv-x="549" d="M178 815Q170 826 170 838Q170 849 176 858T193 871Q201 873 206 873Q218 873 228 867T244 847L294 732H241L178 815ZM483 84T422 37T274 -11Q220 -11 172 8T94 72T63 185V507Q63 610 119 663T275
716Q374 716 428 660T483 506V185Q483 84 422 37ZM411 571T376 607T273 643Q206 643 171 608T135 502V191Q135 127 173 94T273 60Q335 60 373 93T411 193V502Q411 571 376 607Z" />
<glyph unicode="&#xd3;" glyph-name="Oacute" horiz-adv-x="549" d="M306 845Q312 858 322 864T345 871Q350 871 358 869Q369 865 375 856T381 836Q381 824 373 813L310 730H257L306 845ZM483 84T422 37T274 -11Q220 -11 172 8T94 72T63 185V507Q63 610 119 663T275
716Q374 716 428 660T483 506V185Q483 84 422 37ZM411 571T376 607T273 643Q206 643 171 608T135 502V191Q135 127 173 94T273 60Q335 60 373 93T411 193V502Q411 571 376 607Z" />
<glyph unicode="&#xd4;" glyph-name="Ocircumflex" horiz-adv-x="549" d="M278 830L177 732L131 771L279 912L421 771L374 732L278 830ZM483 84T422 37T274 -11Q220 -11 172 8T94 72T63 185V507Q63 610 119 663T275 716Q374 716 428 660T483 506V185Q483 84 422
37ZM411 571T376 607T273 643Q206 643 171 608T135 502V191Q135 127 173 94T273 60Q335 60 373 93T411 193V502Q411 571 376 607Z" />
<glyph unicode="&#xd5;" glyph-name="Otilde" horiz-adv-x="549" d="M407 729T359 729Q342 729 326 734T284 750Q261 760 245 765T213 771Q176 771 140 734L111 781Q157 833 206 833Q224 833 240 828T282 812Q308 802 322 798T351 793Q388 793 420 828L450 781Q407
729 359 729ZM483 84T422 37T274 -11Q220 -11 172 8T94 72T63 185V507Q63 610 119 663T275 716Q374 716 428 660T483 506V185Q483 84 422 37ZM411 571T376 607T273 643Q206 643 171 608T135 502V191Q135 127 173 94T273 60Q335 60 373 93T411 193V502Q411 571 376
607Z" />
<glyph unicode="&#xd6;" glyph-name="Odieresis" horiz-adv-x="549" d="M233 752T222 742T196 731Q181 731 171 741T160 767Q160 782 170 793T196 804Q211 804 222 793T233 767Q233 752 222 742ZM330 731T320 741T309 768Q309 783 319 793T345 804Q360 804 371
794T382 768Q382 752 371 742T345 731Q330 731 320 741ZM483 84T422 37T274 -11Q220 -11 172 8T94 72T63 185V507Q63 610 119 663T275 716Q374 716 428 660T483 506V185Q483 84 422 37ZM411 571T376 607T273 643Q206 643 171 608T135 502V191Q135 127 173 94T273
60Q335 60 373 93T411 193V502Q411 571 376 607Z" />
<glyph unicode="&#xd7;" glyph-name="multiply" horiz-adv-x="406" d="M224 281L129 164L79 209L181 333L78 458L128 500L224 384L321 501L371 459L267 333L371 209L321 165L224 281Z" />
<glyph unicode="&#xd8;" glyph-name="Oslash" horiz-adv-x="540" d="M145 34Q80 86 80 185V507Q80 610 136 663T292 716Q339 716 378 702L418 817H494L441 664Q470 637 485 597T500 506V185Q500 84 439 37T291 -11Q251 -11 210 0L171 -114H94L145 34ZM325 643T290
643Q223 643 188 608T152 502V191Q152 143 173 113L353 632Q325 643 290 643ZM428 546T412 580L234 68Q261 60 290 60Q352 60 390 93T428 193V502Q428 546 412 580Z" />
<glyph unicode="&#xd9;" glyph-name="Ugrave" horiz-adv-x="566" d="M195 815Q187 826 187 838Q187 849 193 858T210 871Q218 873 223 873Q235 873 245 867T261 847L311 732H258L195 815ZM495 701V186Q495 85 434 39T285 -7Q198 -7 136 39T74 186V701H146V194Q146
132 183 96T284 60Q348 60 385 96T423 194V701H495Z" />
<glyph unicode="&#xda;" glyph-name="Uacute" horiz-adv-x="566" d="M307 846Q313 859 323 865T346 872Q351 872 359 870Q370 866 376 857T382 837Q382 825 374 814L311 731H258L307 846ZM495 701V186Q495 85 434 39T285 -7Q198 -7 136 39T74 186V701H146V194Q146
132 183 96T284 60Q348 60 385 96T423 194V701H495Z" />
<glyph unicode="&#xdb;" glyph-name="Ucircumflex" horiz-adv-x="566" d="M287 830L186 732L140 771L288 912L430 771L383 732L287 830ZM495 701V186Q495 85 434 39T285 -7Q198 -7 136 39T74 186V701H146V194Q146 132 183 96T284 60Q348 60 385 96T423 194V701H495Z" />
<glyph unicode="&#xdc;" glyph-name="Udieresis" horiz-adv-x="566" d="M245 752T234 742T208 731Q193 731 183 741T172 767Q172 782 182 793T208 804Q223 804 234 793T245 767Q245 752 234 742ZM342 731T332 741T321 768Q321 783 331 793T357 804Q372 804 383
794T394 768Q394 752 383 742T357 731Q342 731 332 741ZM495 701V186Q495 85 434 39T285 -7Q198 -7 136 39T74 186V701H146V194Q146 132 183 96T284 60Q348 60 385 96T423 194V701H495Z" />
<glyph unicode="&#xdd;" glyph-name="Yacute" horiz-adv-x="556" d="M303 846Q309 859 319 865T342 872Q347 872 355 870Q366 866 372 857T378 837Q378 825 370 814L307 731H254L303 846ZM391 49T409 73T427 156V272Q403 252 364 241T285 230Q180 230 118 284T56
441V700H129V437Q129 370 171 336T285 301Q340 301 378 322T427 383V700H500V156Q500 4 382 -11L362 40Q391 49 409 73Z" />
<glyph unicode="&#xde;" glyph-name="Thorn" horiz-adv-x="490" d="M78 700H150V466Q172 486 203 497T265 509Q358 509 406 455T455 315Q455 221 404 169T269 116Q237 116 203 130T150 171V0H78V700ZM317 185T350 217T383 318Q383 378 350 410T269 442Q222 442
187 412T150 322Q150 252 183 219T269 185Q317 185 350 217Z" />
<glyph unicode="&#xdf;" glyph-name="germandbls" horiz-adv-x="527" d="M78 537Q78 613 115 657T224 701Q267 701 297 682T343 631T359 566Q359 540 350 516T323 477H296Q287 461 287 446Q287 423 305 401T366 341Q408 305 429 282Q492 213 492 144Q492 107 475
72Q456 31 416 10T327 -11Q287 -11 249 2T183 37L217 101Q239 80 266 70T322 59Q350 59 371 69T403 100Q416 123 416 147Q416 193 368 243Q357 254 341 269T315 293Q264 338 239 371T213 443Q213 475 231 507Q258 507 272 524T287 565Q287 592 271 612T227 632Q151
632 151 530V0H78V537Z" />
<glyph unicode="&#xe0;" glyph-name="agrave" horiz-adv-x="498" d="M178 623Q170 634 170 646Q170 657 176 666T193 679Q201 681 206 681Q218 681 228 675T244 655L294 540H241L178 623ZM355 -11T307 -11Q202 -11 140 28T78 169V252Q78 351 147 385Q180 401 228
401Q272 401 317 388T391 353Q391 456 250 456L255 509Q351 509 396 479T452 406T463 298V0Q355 -11 307 -11ZM356 305T314 318T237 332Q150 332 150 246V168Q150 54 306 54Q337 54 391 61V288Q356 305 314 318Z" />
<glyph unicode="&#xe1;" glyph-name="aacute" horiz-adv-x="498" d="M307 653Q313 666 323 672T346 679Q351 679 359 677Q370 673 376 664T382 644Q382 632 374 621L311 538H258L307 653ZM355 -11T307 -11Q202 -11 140 28T78 169V252Q78 351 147 385Q180 401 228
401Q272 401 317 388T391 353Q391 456 250 456L255 509Q351 509 396 479T452 406T463 298V0Q355 -11 307 -11ZM356 305T314 318T237 332Q150 332 150 246V168Q150 54 306 54Q337 54 391 61V288Q356 305 314 318Z" />
<glyph unicode="&#xe2;" glyph-name="acircumflex" horiz-adv-x="498" d="M282 637L181 539L135 578L283 719L425 578L378 539L282 637ZM355 -11T307 -11Q202 -11 140 28T78 169V252Q78 351 147 385Q180 401 228 401Q272 401 317 388T391 353Q391 456 250 456L255
509Q351 509 396 479T452 406T463 298V0Q355 -11 307 -11ZM356 305T314 318T237 332Q150 332 150 246V168Q150 54 306 54Q337 54 391 61V288Q356 305 314 318Z" />
<glyph unicode="&#xe3;" glyph-name="atilde" horiz-adv-x="498" d="M399 540T351 540Q334 540 318 545T276 561Q253 571 237 576T205 582Q168 582 132 545L103 592Q148 644 198 644Q216 644 232 639T274 623Q300 613 314 609T343 604Q380 604 412 639L442 592Q399
540 351 540ZM355 -11T307 -11Q202 -11 140 28T78 169V252Q78 351 147 385Q180 401 228 401Q272 401 317 388T391 353Q391 456 250 456L255 509Q351 509 396 479T452 406T463 298V0Q355 -11 307 -11ZM356 305T314 318T237 332Q150 332 150 246V168Q150 54 306 54Q337
54 391 61V288Q356 305 314 318Z" />
<glyph unicode="&#xe4;" glyph-name="adieresis" horiz-adv-x="498" d="M243 560T232 550T206 539Q191 539 181 549T170 575Q170 590 180 601T206 612Q221 612 232 601T243 575Q243 560 232 550ZM340 539T330 549T319 576Q319 591 329 601T355 612Q370 612 381
602T392 576Q392 560 381 550T355 539Q340 539 330 549ZM355 -11T307 -11Q202 -11 140 28T78 169V252Q78 351 147 385Q180 401 228 401Q272 401 317 388T391 353Q391 456 250 456L255 509Q351 509 396 479T452 406T463 298V0Q355 -11 307 -11ZM356 305T314 318T237
332Q150 332 150 246V168Q150 54 306 54Q337 54 391 61V288Q356 305 314 318Z" />
<glyph unicode="&#xe5;" glyph-name="aring" horiz-adv-x="498" d="M355 -11T307 -11Q202 -11 140 28T78 169V252Q78 351 147 385Q180 401 228 401Q272 401 317 388T391 353Q391 456 250 456Q208 461 179 492T150 567Q150 613 182 645T261 678Q307 678 339 646T372
567Q372 528 348 498Q401 484 426 453T457 387T463 298V0Q355 -11 307 -11ZM285 510T301 526T317 567Q317 591 301 607T261 623Q237 623 221 607T204 567Q204 543 220 527T261 510Q285 510 301 526ZM356 305T314 318T237 332Q150 332 150 246V168Q150 54 306 54Q337
54 391 61V288Q356 305 314 318Z" />
<glyph unicode="&#xe6;" glyph-name="ae" horiz-adv-x="786" d="M690 13T644 1T553 -12Q502 -12 463 5V0Q355 -11 307 -11Q202 -11 140 28T78 169V252Q78 351 147 385Q180 401 228 401Q272 401 317 388T391 353Q391 456 250 456L255 509Q382 509 428 451Q453 480
490 495T575 510Q658 510 704 466T751 342V205L463 190V131Q465 93 491 73T559 53Q623 53 699 94L726 35Q690 13 644 1ZM678 399T645 421T574 444Q524 444 494 417T463 338V258L678 269V346Q678 399 645 421ZM356 305T314 318T237 332Q150 332 150 246V168Q150
54 306 54Q337 54 391 61V288Q356 305 314 318Z" />
<glyph unicode="&#xe7;" glyph-name="ccedilla" horiz-adv-x="383" d="M136 -155T152 -159T189 -163Q213 -163 232 -153T251 -122Q251 -107 240 -97T211 -87Q195 -87 174 -96L137 -113L115 -78L172 -4L148 2Q89 22 63 63T36 180V308Q36 407 88 458T222 510Q287
510 356 478L336 421Q279 443 234 443Q177 443 143 411T108 314V169Q108 110 146 84T245 57Q292 57 341 70L358 6Q285 -13 219 -10L190 -49Q204 -42 226 -42Q260 -42 284 -63T308 -122Q308 -172 269 -194T179 -217Q139 -217 84 -197L111 -138Q136 -155 152 -159Z"
/>
<glyph unicode="&#xe8;" glyph-name="egrave" horiz-adv-x="473" d="M170 623Q162 634 162 646Q162 657 168 666T185 679Q193 681 198 681Q210 681 220 675T236 655L286 540H233L170 623ZM377 12T331 0T239 -12Q165 -12 122 24T78 134V339Q78 420 128 465T262
510Q345 510 391 466T438 342V205L150 190V138Q150 96 176 75T247 54Q312 54 386 94L413 35Q377 12 331 0ZM365 399T332 421T261 444Q211 444 181 417T150 338V258L365 269V346Q365 399 332 421Z" />
<glyph unicode="&#xe9;" glyph-name="eacute" horiz-adv-x="473" d="M289 653Q295 666 305 672T328 679Q333 679 341 677Q352 673 358 664T364 644Q364 632 356 621L293 538H240L289 653ZM377 12T331 0T239 -12Q165 -12 122 24T78 134V339Q78 420 128 465T262
510Q345 510 391 466T438 342V205L150 190V138Q150 96 176 75T247 54Q312 54 386 94L413 35Q377 12 331 0ZM365 399T332 421T261 444Q211 444 181 417T150 338V258L365 269V346Q365 399 332 421Z" />
<glyph unicode="&#xea;" glyph-name="ecircumflex" horiz-adv-x="473" d="M276 637L175 539L129 578L277 719L419 578L372 539L276 637ZM377 12T331 0T239 -12Q165 -12 122 24T78 134V339Q78 420 128 465T262 510Q345 510 391 466T438 342V205L150 190V138Q150
96 176 75T247 54Q312 54 386 94L413 35Q377 12 331 0ZM365 399T332 421T261 444Q211 444 181 417T150 338V258L365 269V346Q365 399 332 421Z" />
<glyph unicode="&#xeb;" glyph-name="edieresis" horiz-adv-x="537" d="M178 560T167 550T141 539Q126 539 116 549T105 575Q105 590 115 601T141 612Q156 612 167 601T178 575Q178 560 167 550ZM275 539T265 549T254 576Q254 591 264 601T290 612Q305 612 316
602T327 576Q327 560 316 550T290 539Q275 539 265 549ZM334 12T288 0T196 -12Q122 -12 79 24T35 134V339Q35 420 85 465T219 510Q302 510 348 466T395 342V205L107 190V138Q107 96 133 75T204 54Q269 54 343 94L370 35Q334 12 288 0ZM322 399T289 421T218 444Q168
444 138 417T107 338V258L322 269V346Q322 399 289 421Z" />
<glyph unicode="&#xec;" glyph-name="igrave" horiz-adv-x="254" d="M86 623Q78 634 78 646Q78 657 84 666T101 679Q109 681 114 681Q126 681 136 675T152 655L202 540H149L86 623ZM147 501H219V0H147V501Z" />
<glyph unicode="&#xed;" glyph-name="iacute" horiz-adv-x="249" d="M139 653Q145 666 155 672T178 679Q183 679 191 677Q202 673 208 664T214 644Q214 632 206 621L143 538H90L139 653ZM78 501H150V0H78V501Z" />
<glyph unicode="&#xee;" glyph-name="icircumflex" horiz-adv-x="225" d="M111 637L10 539L-36 578L112 719L254 578L207 539L111 637ZM75 501H147V0H75V501Z" />
<glyph unicode="&#xef;" glyph-name="idieresis" horiz-adv-x="335" d="M151 560T140 550T114 539Q99 539 89 549T78 575Q78 590 88 601T114 612Q129 612 140 601T151 575Q151 560 140 550ZM248 539T238 549T227 576Q227 591 237 601T263 612Q278 612 289 602T300
576Q300 560 289 550T263 539Q248 539 238 549ZM153 501H225V0H153V501Z" />
<glyph unicode="&#xf1;" glyph-name="ntilde" horiz-adv-x="482" d="M388 541T340 541Q323 541 307 546T265 562Q242 572 226 577T194 583Q157 583 121 546L92 593Q137 645 187 645Q205 645 221 640T263 624Q289 614 303 610T332 605Q369 605 401 640L431 593Q388
541 340 541ZM375 335Q375 389 343 415T260 442Q232 442 203 435T150 413V0H78V501H146L147 475Q170 491 202 500T271 509Q323 509 362 491Q402 473 424 437T447 346V0H375V335Z" />
<glyph unicode="&#xf2;" glyph-name="ograve" horiz-adv-x="486" d="M169 623Q161 634 161 646Q161 657 167 666T184 679Q192 681 197 681Q209 681 219 675T235 655L285 540H232L169 623ZM451 100T405 45T266 -10Q173 -10 126 45T78 184V316Q78 411 126 461T266
512Q353 512 402 460T451 316V184Q451 100 405 45ZM379 443T266 443Q213 443 182 413T150 316V174Q150 120 181 89T266 57Q319 57 349 88T379 174V316Q379 443 266 443Z" />
<glyph unicode="&#xf3;" glyph-name="oacute" horiz-adv-x="486" d="M288 653Q294 666 304 672T327 679Q332 679 340 677Q351 673 357 664T363 644Q363 632 355 621L292 538H239L288 653ZM451 100T405 45T266 -10Q173 -10 126 45T78 184V316Q78 411 126 461T266
512Q353 512 402 460T451 316V184Q451 100 405 45ZM379 443T266 443Q213 443 182 413T150 316V174Q150 120 181 89T266 57Q319 57 349 88T379 174V316Q379 443 266 443Z" />
<glyph unicode="&#xf4;" glyph-name="ocircumflex" horiz-adv-x="486" d="M271 637L170 539L124 578L272 719L414 578L367 539L271 637ZM451 100T405 45T266 -10Q173 -10 126 45T78 184V316Q78 411 126 461T266 512Q353 512 402 460T451 316V184Q451 100 405 45ZM379
443T266 443Q213 443 182 413T150 316V174Q150 120 181 89T266 57Q319 57 349 88T379 174V316Q379 443 266 443Z" />
<glyph unicode="&#xf5;" glyph-name="otilde" horiz-adv-x="486" d="M397 533T349 533Q332 533 316 538T274 554Q251 564 235 569T203 575Q166 575 130 538L101 585Q147 637 196 637Q214 637 230 632T272 616Q298 606 312 602T341 597Q378 597 410 632L440 585Q397
533 349 533ZM451 100T405 45T266 -10Q173 -10 126 45T78 184V316Q78 411 126 461T266 512Q353 512 402 460T451 316V184Q451 100 405 45ZM379 443T266 443Q213 443 182 413T150 316V174Q150 120 181 89T266 57Q319 57 349 88T379 174V316Q379 443 266 443Z" />
<glyph unicode="&#xf6;" glyph-name="odieresis" horiz-adv-x="486" d="M232 560T221 550T195 539Q180 539 170 549T159 575Q159 590 169 601T195 612Q210 612 221 601T232 575Q232 560 221 550ZM329 539T319 549T308 576Q308 591 318 601T344 612Q359 612 370
602T381 576Q381 560 370 550T344 539Q329 539 319 549ZM451 100T405 45T266 -10Q173 -10 126 45T78 184V316Q78 411 126 461T266 512Q353 512 402 460T451 316V184Q451 100 405 45ZM379 443T266 443Q213 443 182 413T150 316V174Q150 120 181 89T266 57Q319 57
349 88T379 174V316Q379 443 266 443Z" />
<glyph unicode="&#xf7;" glyph-name="divide" horiz-adv-x="433" d="M224 469T213 481T201 509Q201 525 212 536T240 548Q256 548 268 537T280 509Q280 493 269 481T240 469Q224 469 213 481ZM78 417H398V352H78V417ZM280 241T268 230T240 218Q224 218 213 229T201
257Q201 273 212 284T240 296Q256 296 268 285T280 257Q280 241 268 230Z" />
<glyph unicode="&#xf8;" glyph-name="oslash" horiz-adv-x="490" d="M136 35Q107 62 93 100T78 184V316Q78 411 126 461T266 512Q303 512 336 501L373 588H446L393 467Q421 441 436 403T451 316V184Q451 100 405 45T266 -10Q225 -10 192 1L163 -67H92L136 35ZM288
443T266 443Q213 443 182 413T150 316V174Q150 135 167 107L308 437Q288 443 266 443ZM379 362T362 394L219 64Q239 57 266 57Q319 57 349 88T379 174V316Q379 362 362 394Z" />
<glyph unicode="&#xf9;" glyph-name="ugrave" horiz-adv-x="486" d="M176 623Q168 634 168 646Q168 657 174 666T191 679Q199 681 204 681Q216 681 226 675T242 655L292 540H239L176 623ZM382 37Q361 14 330 2T266 -11Q78 -11 78 172V501H150V172Q150 114 180
86T266 57Q379 57 379 173V501H451V0H382V37Z" />
<glyph unicode="&#xfa;" glyph-name="uacute" horiz-adv-x="486" d="M288 653Q294 666 304 672T327 679Q332 679 340 677Q351 673 357 664T363 644Q363 632 355 621L292 538H239L288 653ZM382 37Q361 14 330 2T266 -11Q78 -11 78 172V501H150V172Q150 114 180
86T266 57Q379 57 379 173V501H451V0H382V37Z" />
<glyph unicode="&#xfb;" glyph-name="ucircumflex" horiz-adv-x="486" d="M268 637L167 539L121 578L269 719L411 578L364 539L268 637ZM382 37Q361 14 330 2T266 -11Q78 -11 78 172V501H150V172Q150 114 180 86T266 57Q379 57 379 173V501H451V0H382V37Z" />
<glyph unicode="&#xfc;" glyph-name="udieresis" horiz-adv-x="486" d="M227 560T216 550T190 539Q175 539 165 549T154 575Q154 590 164 601T190 612Q205 612 216 601T227 575Q227 560 216 550ZM324 539T314 549T303 576Q303 591 313 601T339 612Q354 612 365
602T376 576Q376 560 365 550T339 539Q324 539 314 549ZM382 37Q361 14 330 2T266 -11Q78 -11 78 172V501H150V172Q150 114 180 86T266 57Q379 57 379 173V501H451V0H382V37Z" />
<glyph unicode="&#xfd;" glyph-name="yacute" horiz-adv-x="530" d="M285 653Q291 666 301 672T324 679Q329 679 337 677Q348 673 354 664T360 644Q360 632 352 621L289 538H236L285 653ZM383 -134T383 -61V35Q365 11 333 0T261 -12Q173 -12 126 35T78 176V501H149V178Q149
57 261 57Q382 57 382 178V363Q382 422 400 459T472 510L495 456Q474 449 464 430T453 385V-61Q453 -123 427 -159T339 -210L316 -154Q383 -134 383 -61Z" />
<glyph unicode="&#xfe;" glyph-name="thorn" horiz-adv-x="490" d="M78 588H150V466Q172 486 203 497T265 509Q358 509 406 455T455 315Q455 221 404 169T269 116Q237 116 203 130T150 171V0H78V588ZM150 252T183 219T269 185Q317 185 350 217T383 318Q383 378
350 410T269 442Q222 442 187 412T150 322Q150 252 183 219Z" />
<glyph unicode="&#xff;" glyph-name="ydieresis" horiz-adv-x="530" d="M233 560T222 550T196 539Q181 539 171 549T160 575Q160 590 170 601T196 612Q211 612 222 601T233 575Q233 560 222 550ZM330 539T320 549T309 576Q309 591 319 601T345 612Q360 612 371
602T382 576Q382 560 371 550T345 539Q330 539 320 549ZM383 -134T383 -61V35Q365 11 333 0T261 -12Q173 -12 126 35T78 176V501H149V178Q149 57 261 57Q382 57 382 178V363Q382 422 400 459T472 510L495 456Q474 449 464 430T453 385V-61Q453 -123 427 -159T339
-210L316 -154Q383 -134 383 -61Z" />
<glyph unicode="&#x2018;" glyph-name="quoteleft" horiz-adv-x="114" d="M72 621T76 610T81 589Q80 573 68 563T39 553Q23 554 12 568T0 597Q0 657 65 713L114 685Q93 673 78 661T56 642T48 632L59 629Q72 621 76 610Z" />
<glyph unicode="&#x2019;" glyph-name="quoteright" horiz-adv-x="114" d="M21 589T36 601T58 620T66 630L55 633Q42 641 38 652T33 673Q34 689 46 699T75 709Q91 708 102 694T114 665Q114 605 49 549L0 577Q21 589 36 601Z" />
<glyph unicode="&#x201a;" glyph-name="quotesinglbase" horiz-adv-x="165" d="M29 -44T44 -32T66 -13T74 -3L63 0Q50 8 46 19T41 40Q42 56 54 66T83 76Q99 75 110 61T122 32Q122 -28 57 -84L8 -56Q29 -44 44 -32Z" />
<glyph unicode="&#x201c;" glyph-name="quotedblleft" horiz-adv-x="292" d="M117 625T121 614T126 593Q125 577 113 567T84 557Q68 558 57 572T45 601Q45 661 110 717L159 689Q138 677 123 665T101 646T93 636L104 633Q117 625 121 614ZM231 625T235 614T240
593Q239 577 227 567T198 557Q182 558 171 572T159 601Q159 661 224 717L273 689Q252 677 237 665T215 646T207 636L218 633Q231 625 235 614Z" />
<glyph unicode="&#x201d;" glyph-name="quotedblright" horiz-adv-x="286" d="M31 589T46 601T68 620T76 630L65 633Q52 641 48 652T43 673Q44 689 56 699T85 709Q101 708 112 694T124 665Q124 605 59 549L10 577Q31 589 46 601ZM147 589T162 601T184 620T192
630L181 633Q168 641 164 652T159 673Q160 689 172 699T201 709Q217 708 228 694T240 665Q240 605 175 549L126 577Q147 589 162 601Z" />
<glyph unicode="&#x201e;" glyph-name="quotedblbase" horiz-adv-x="315" d="M102 -83L53 -55Q74 -43 89 -31T111 -12T119 -2L108 1Q95 9 91 20T86 41Q87 56 97 66T124 77Q143 77 155 63Q160 69 168 73T186 77Q204 77 216 63T228 33Q228 -27 163 -83L125 -61L102
-83ZM165 3T163 5Q158 -16 146 -34Q161 -23 169 -14T180 -2L169 1Q165 3 163 5Z" />
<glyph unicode="&#x2022;" glyph-name="bullet" horiz-adv-x="470" d="M207 158T167 182T102 247T78 337Q78 386 102 426T166 491T256 515Q305 515 346 491T411 427T435 337Q435 288 411 247T346 182T256 158Q207 158 167 182Z" />
<glyph unicode="&#x2039;" glyph-name="guilsinglleft" horiz-adv-x="278" d="M42 267V268L229 455L277 407L136 267L275 124L229 80L42 267Z" />
<glyph unicode="&#x203a;" glyph-name="guilsinglright" horiz-adv-x="294" d="M143 267L2 407L50 455L237 268V267L50 80L4 124L143 267Z" />
</font>
</defs>
</svg>
