<?xml version="1.0" standalone="no"?>
<!DOCTYPE svg PUBLIC "-//W3C//DTD SVG 1.1//EN" "http://www.w3.org/Graphics/SVG/1.1/DTD/svg11.dtd">
<svg xmlns="http://www.w3.org/2000/svg">
<defs >
<font id="AdventPro" horiz-adv-x="487" ><font-face
    font-family="Advent Pro SemiBold"
    units-per-em="1000"
    panose-1="2 0 5 6 4 0 0 2 0 4"
    ascent="964"
    descent="-232"
    alphabetic="0" />
<glyph unicode=" " glyph-name="space" horiz-adv-x="278" />
<glyph unicode="!" glyph-name="exclam" horiz-adv-x="257" d="M78 652Q78 676 88 693T126 710Q177 710 177 653L160 120H94L78 652ZM172 26T159 13T127 0Q109 0 96 13T83 44Q83 63 96 76T127 89Q146 89 159 76T172 44Q172 26 159 13Z" />
<glyph unicode="&quot;" glyph-name="quotedbl" horiz-adv-x="426" d="M105 697Q105 715 117 725T147 736Q163 736 175 726T187 697L173 512H119L105 697ZM249 697Q249 715 261 725T291 736Q307 736 319 726T331 697L317 512H263L249 697Z" />
<glyph unicode="#" glyph-name="numbersign" horiz-adv-x="613" d="M376 0H284L323 175H205L165 0H77L118 175H34V261H138L166 377H34V469H188L241 700H329L275 469H394L448 700H541L487 469H582V377H465L438 261H582V175H417L376 0ZM253 377L226 261H344L372 377H253Z" />
<glyph unicode="$" glyph-name="dollar" horiz-adv-x="540" d="M225 -7Q165 1 122 29T57 96T34 178L131 189Q134 152 159 123T225 85V352Q170 374 134 395T75 450T51 537Q51 597 96 645T225 706V817H316V708Q348 706 372 699T423 680L394 594Q355 609 316 615V413Q374
388 414 362T482 294T509 193Q509 112 462 58T316 -8V-114H225V-7ZM188 603T169 583T149 534Q149 507 168 489T225 453V612Q188 603 169 583ZM359 94T384 121T409 185Q409 229 385 258T316 310V84Q359 94 384 121Z" />
<glyph unicode="%" glyph-name="percent" horiz-adv-x="680" d="M578 743L649 686L100 0L34 59L578 743ZM148 439T115 458T63 511T43 583Q43 622 62 655T115 707T187 727Q226 727 259 708T311 655T331 583Q331 544 312 511T259 459T187 439Q148 439 115 458ZM243
605T228 622T187 639Q163 639 148 622T132 583Q132 561 147 544T187 527Q212 527 227 544T243 583Q243 605 228 622ZM459 -11T426 8T374 61T354 133Q354 172 373 205T426 257T498 277Q537 277 570 258T622 205T642 133Q642 94 623 61T570 9T498 -11Q459 -11 426
8ZM553 155T538 171T498 188Q473 188 458 172T443 133Q443 111 458 95T498 78Q523 78 538 94T553 133Q553 155 538 171Z" />
<glyph unicode="&amp;" glyph-name="ampersand" horiz-adv-x="556" d="M449 -7T416 9T362 58Q343 29 306 9T213 -11Q157 -11 117 15T56 85T35 181Q35 283 93 339T218 421Q184 432 161 470T138 555Q138 601 161 636T225 691T311 711Q346 711 381 699L329 620Q316
625 304 625Q277 625 255 607T232 559Q230 529 243 509T277 479T316 469L324 470L341 472V600L432 609V484L505 500L525 409L432 390V168Q432 129 448 101T498 61L482 -11Q449 -7 416 9ZM248 348T186 307T124 184Q124 139 150 110T222 81Q259 81 286 101T327 154T341
222V370Q248 348 186 307Z" />
<glyph unicode="&apos;" glyph-name="quotesingle" horiz-adv-x="173" d="M46 697Q46 715 58 725T88 736Q104 736 116 726T128 697L114 589H60L46 697Z" />
<glyph unicode="(" glyph-name="parenleft" horiz-adv-x="315" d="M153 -94T129 -72T92 -15T78 71V627Q78 679 91 714T128 771T192 817L234 747Q202 733 185 703T168 617V82Q168 37 176 12T198 -25T235 -51L193 -117Q153 -94 129 -72Z" />
<glyph unicode=")" glyph-name="parenright" horiz-adv-x="315" d="M102 -37T114 -26T135 11T144 82V617Q144 673 128 703T79 747L121 817Q161 794 185 772T222 714T235 627V71Q235 19 222 -15T184 -71T120 -117L78 -51Q102 -37 114 -26Z" />
<glyph unicode="*" glyph-name="asterisk" horiz-adv-x="352" d="M175 515L127 404L47 461L130 541L17 561L48 645L148 587L127 700H223L201 587L300 646L336 560L219 540L304 460L223 404L175 515Z" />
<glyph unicode="+" glyph-name="plus" horiz-adv-x="385" d="M148 325H34V413H148V545H240V413H354V325H240V205H148V325Z" />
<glyph unicode="," glyph-name="comma" horiz-adv-x="171" d="M34 -38T53 -22T73 -3L62 0Q47 8 42 21T36 44Q37 63 50 76T83 89Q105 89 117 71T129 35Q130 2 114 -26T63 -84L4 -55Q34 -38 53 -22Z" />
<glyph unicode="-" glyph-name="hyphen" horiz-adv-x="410" d="M45 413H365V325H45V413Z" />
<glyph unicode="." glyph-name="period" horiz-adv-x="135" d="M31 0T18 13T4 44Q4 63 17 76T49 89Q67 89 80 76T93 44Q93 26 80 13T49 0Q31 0 18 13Z" />
<glyph unicode="/" glyph-name="slash" horiz-adv-x="455" d="M341 817H439L114 -114H17L341 817Z" />
<glyph unicode="0" glyph-name="zero" horiz-adv-x="549" d="M483 84T422 37T274 -11Q220 -11 172 8T94 72T63 185V507Q63 610 119 663T275 716Q374 716 428 660T483 506V185Q483 84 422 37ZM392 552T365 586T273 620Q209 620 182 587T154 487V198Q154 142 185
111T273 80Q327 80 359 111T392 199V486Q392 552 365 586Z" />
<glyph unicode="1" glyph-name="one" horiz-adv-x="235" d="M128 577Q115 569 96 563T62 555T42 552L17 633Q17 632 37 637T82 657T128 700H219V0H127L128 577Z" />
<glyph unicode="2" glyph-name="two" horiz-adv-x="400" d="M17 84L255 438Q289 489 289 534Q289 573 263 597T199 621Q168 621 144 600T114 549L32 590Q50 642 96 676T205 710Q256 710 296 688T358 628T380 542Q380 473 336 406L123 84H383V0H17V84Z" />
<glyph unicode="3" glyph-name="three" horiz-adv-x="423" d="M94 114T125 96T193 77Q248 77 282 113T316 201Q316 257 275 289T169 325H59L248 609H61V700H349V611L217 413L221 412Q269 406 312 378T381 304T407 201Q407 143 379 94T301 17T194 -12Q140 -12 93
13T17 83L77 144Q94 114 125 96Z" />
<glyph unicode="4" glyph-name="four" horiz-adv-x="509" d="M332 325H17L210 700H303L166 413H332V700H423V413H493L474 325H423V0H332V325Z" />
<glyph unicode="5" glyph-name="five" horiz-adv-x="423" d="M101 112T128 95T194 78Q252 78 284 114T316 201Q316 257 275 291T167 325H45L85 700H351V609H169L149 413H194Q252 413 301 385T378 308T407 201Q407 143 379 94T301 17T194 -12Q140 -12 93 13T17
83L77 145Q101 112 128 95Z" />
<glyph unicode="6" glyph-name="six" horiz-adv-x="458" d="M17 516T40 570T118 662T261 700H296V609H265Q197 609 153 573T108 445V368Q126 387 161 400T229 413Q287 413 336 385T413 308T442 201Q442 143 414 94T336 17T229 -12Q171 -12 123 16T46 94T17 201V461Q17
516 40 570ZM107 150T142 114T229 78Q280 78 315 114T351 201Q351 252 316 287T229 322Q179 322 144 289T107 206V201Q107 150 142 114Z" />
<glyph unicode="7" glyph-name="seven" horiz-adv-x="439" d="M321 609H29V700H423V609L122 0H21L321 609Z" />
<glyph unicode="8" glyph-name="eight" horiz-adv-x="459" d="M381 360T412 311T443 201Q443 143 415 94T337 17T230 -12Q172 -12 123 16T46 94T17 201Q17 262 48 312T131 389Q96 413 76 450T56 533Q56 581 79 621T143 685T231 709Q279 709 319 686T383 622T407
533Q407 488 387 450T330 388Q381 360 412 311ZM265 449T290 473T316 533Q316 569 291 594T231 620Q195 620 170 595T144 533Q144 498 168 474T227 449Q265 449 290 473ZM352 252T317 287T226 324Q177 323 143 287T108 201Q108 150 143 115T230 79Q281 79 316 114T352
201Q352 252 317 287Z" />
<glyph unicode="9" glyph-name="nine" horiz-adv-x="458" d="M163 85H202Q270 85 311 131T352 257V329Q327 308 300 297T230 285Q172 285 123 313T46 390T17 497Q17 555 45 604T123 681T230 710Q288 710 336 682T413 604T442 497V239Q442 184 419 130T341 38T198
0H163V85ZM280 376T316 411T352 502Q352 534 335 561T290 604T230 620Q197 620 169 604T125 559T108 497Q108 447 144 412T230 376Q280 376 316 411Z" />
<glyph unicode=":" glyph-name="colon" horiz-adv-x="128" d="M46 325T32 338T18 371Q18 390 32 404T65 418Q84 418 97 404T111 371Q111 352 98 339T65 325Q46 325 32 338ZM45 110T31 124T17 158Q17 178 31 192T64 206Q84 206 98 192T112 158Q112 138 98 124T64
110Q45 110 31 124Z" />
<glyph unicode=";" glyph-name="semicolon" horiz-adv-x="158" d="M76 216T63 229T50 262Q50 281 63 294T95 307Q114 307 127 294T141 262Q141 243 128 230T95 216Q76 216 63 229ZM47 -38T66 -22T86 -3L74 0Q59 8 54 20T49 44Q49 63 62 76T95 89Q118 89 130 72T142
35Q142 2 126 -26T76 -84L17 -55Q47 -38 66 -22Z" />
<glyph unicode="&lt;" glyph-name="less" horiz-adv-x="373" d="M17 358V359L295 637L357 578L135 358L355 136L295 80L17 358Z" />
<glyph unicode="=" glyph-name="equal" horiz-adv-x="353" d="M17 445H337V357H17V445ZM17 309H337V221H17V309Z" />
<glyph unicode="&gt;" glyph-name="greater" horiz-adv-x="373" d="M238 358L16 578L78 637L356 359V358L78 80L18 136L238 358Z" />
<glyph unicode="?" glyph-name="question" horiz-adv-x="398" d="M139 212Q139 258 151 293T180 352T225 409Q252 439 263 456Q288 494 288 529Q288 569 262 595T202 622Q159 622 134 598T109 532H17Q17 580 37 620T97 685T195 709Q246 709 288 684T356 617T381
527Q381 471 346 420Q329 395 313 378T293 357Q269 332 257 314T236 265T227 182Q227 182 227 145V119H139V212ZM227 26T214 13T182 0Q164 0 151 13T138 44Q138 63 151 76T182 89Q200 89 213 76T227 44Q227 26 214 13Z" />
<glyph unicode="@" glyph-name="at" horiz-adv-x="747" d="M604 384T609 412T635 465T704 500L731 429Q706 419 699 401T691 353L692 176Q692 79 636 21T498 -60T335 -83Q246 -83 174 -53T60 38T17 183V342Q17 449 78 509T222 585Q264 594 308 594Q408 594 475
547T542 399L579 384V298L542 314V91Q412 52 331 52Q167 52 157 204V305Q157 365 179 399T245 449Q275 460 315 460Q352 460 388 452T450 431Q444 475 406 494T322 513Q226 513 164 469T102 334V190Q102 89 171 45T340 0Q406 0 466 17T566 70T605 162L604 337Q604
384 609 412ZM423 358T391 367T328 376Q289 376 266 358T242 298V228Q243 187 266 161T343 134Q388 134 451 155V344Q423 358 391 367Z" />
<glyph unicode="A" glyph-name="A" horiz-adv-x="527" d="M356 205H172L119 0H18L203 700H322L517 0H411L356 205ZM194 300H334L262 550L194 300Z" />
<glyph unicode="B" glyph-name="B" horiz-adv-x="548" d="M78 700H288Q370 700 422 655T475 525Q475 485 462 450T409 387L408 385V384Q452 364 481 320T511 206Q511 153 491 107T424 30T301 0H78V700ZM314 413T342 437T371 514Q371 568 343 589T262 610H169V413H257Q314
413 342 437ZM337 84T372 109T408 209Q408 271 372 298T281 325H169V84H269Q337 84 372 109Z" />
<glyph unicode="C" glyph-name="C" horiz-adv-x="432" d="M338 -10T261 -10Q174 -10 120 36T66 183V504Q66 580 87 619T153 685Q197 710 261 710Q339 710 402 677L376 599Q328 617 273 617Q225 617 191 592T157 513V185Q157 82 274 82Q334 82 412 107L427 23Q338
-10 261 -10Z" />
<glyph unicode="D" glyph-name="D" horiz-adv-x="576" d="M78 701H266Q379 701 438 639T498 474V200Q498 0 286 0H78V701ZM407 549T372 580T276 611H169V83H270Q331 83 369 104T407 190V484Q407 549 372 580Z" />
<glyph unicode="E" glyph-name="E" horiz-adv-x="465" d="M78 700H412V610H169V413H325L298 325H169V82H410V0H78V700Z" />
<glyph unicode="F" glyph-name="F" horiz-adv-x="449" d="M78 700H412V610H169V413H320L288 325H169V0H78V700Z" />
<glyph unicode="G" glyph-name="G" horiz-adv-x="537" d="M385 20Q341 -10 276 -10Q220 -10 172 11T95 77T65 189V503Q65 573 87 615T152 684Q196 709 260 709Q338 709 401 676L374 598Q323 617 277 617Q224 617 190 596T156 512V187Q156 132 188 107T275 81Q323
81 354 107T386 186V212H326L296 300H476V0H394L385 20Z" />
<glyph unicode="H" glyph-name="H" horiz-adv-x="588" d="M418 325H169V0H78V700H169V413H418V700H508V0H418V325Z" />
<glyph unicode="I" glyph-name="I" horiz-adv-x="296" d="M126 612L63 614V700H218V0H126V612Z" />
<glyph unicode="J" glyph-name="J" horiz-adv-x="221" d="M33 37T62 59T92 141V612L30 614V700H182V132Q182 44 146 4T23 -37L-5 37Q33 37 62 59Z" />
<glyph unicode="K" glyph-name="K" horiz-adv-x="512" d="M197 301L175 268V0H79V701H175V427L359 701H468L251 384L511 0H399L197 301Z" />
<glyph unicode="L" glyph-name="L" horiz-adv-x="440" d="M78 700H169V83H439V0H78V700Z" />
<glyph unicode="M" glyph-name="M" horiz-adv-x="694" d="M523 428L383 0H307L169 427V0H78V700H169L345 184L523 700H614V0H523V428Z" />
<glyph unicode="N" glyph-name="N" horiz-adv-x="650" d="M169 516V0H78V700H169L478 186V700H570V0H478L169 516Z" />
<glyph unicode="O" glyph-name="O" horiz-adv-x="549" d="M483 84T422 37T274 -11Q220 -11 172 8T94 72T63 185V507Q63 610 119 663T275 716Q374 716 428 660T483 506V185Q483 84 422 37ZM392 552T365 586T273 620Q209 620 182 587T154 487V198Q154 142 185 111T273
80Q327 80 359 111T392 199V486Q392 552 365 586Z" />
<glyph unicode="P" glyph-name="P" horiz-adv-x="549" d="M78 700H312Q413 700 462 636T512 471Q512 368 476 290T321 212H169V0H78V700ZM356 300T383 327T415 388T421 470Q421 548 389 579T295 610H169V300H299Q356 300 383 327Z" />
<glyph unicode="Q" glyph-name="Q" horiz-adv-x="549" d="M289 -111T246 -9Q173 -3 118 42T63 185V507Q63 610 119 663T275 716Q374 716 428 660T483 506V185Q483 100 440 55T339 -2Q352 -18 372 -23T430 -28L421 -108Q289 -111 246 -9ZM392 557T364 589T273 621Q154
621 154 509V186Q154 150 172 116T228 81Q226 95 226 113T226 137V174H318V138V108Q318 91 319 82Q357 84 374 115T392 187V509Q392 557 364 589Z" />
<glyph unicode="R" glyph-name="R" horiz-adv-x="564" d="M347 214Q339 212 324 212H169V0H78V700H318Q414 700 463 635T512 470Q512 422 508 385T486 310T431 244L513 0H420L347 214ZM356 300T380 327T411 389T417 470Q417 548 385 578T290 609H169V300H304Q356
300 380 327Z" />
<glyph unicode="S" glyph-name="S" horiz-adv-x="561" d="M139 142T176 110T272 78Q338 78 375 108T412 185Q412 229 390 258T334 305T243 346Q181 370 144 390T80 446T54 537Q54 581 79 620T155 685T280 710Q329 710 361 703T426 680L397 594Q338 618 281 618Q219
618 186 596T152 535Q152 510 170 491T214 459T290 424Q359 396 403 371T480 302T512 193Q512 103 453 46T273 -11Q199 -11 147 16T67 87T37 178L134 189Q139 142 176 110Z" />
<glyph unicode="T" glyph-name="T" horiz-adv-x="402" d="M153 610H0V700H402V610H244V0H153V610Z" />
<glyph unicode="U" glyph-name="U" horiz-adv-x="566" d="M495 701V186Q495 85 434 39T285 -7Q198 -7 136 39T74 186V701H165V212Q165 81 284 81Q404 81 404 212V701H495Z" />
<glyph unicode="V" glyph-name="V" horiz-adv-x="593" d="M78 700H180L317 165L452 700H556L373 0H262L78 700Z" />
<glyph unicode="W" glyph-name="W" horiz-adv-x="811" d="M427 439L336 0H223L78 700H178L281 188L388 700H466L573 188L671 700H774L630 0H519L427 439Z" />
<glyph unicode="X" glyph-name="X" horiz-adv-x="671" d="M351 261L191 0H78L297 351L92 700H199L355 446L507 700H614L410 357L630 0H515L351 261Z" />
<glyph unicode="Y" glyph-name="Y" horiz-adv-x="552" d="M365 59T385 82T405 160V246Q383 231 350 222T281 212Q177 212 115 269T52 427V700H143V430Q143 366 179 334T281 302Q332 302 363 319T405 363V700H496V156Q496 79 465 36T362 -15L335 53Q365 59 385 82Z" />
<glyph unicode="Z" glyph-name="Z" horiz-adv-x="550" d="M31 83L397 611H44V700H512V611L145 85H518V0H31V83Z" />
<glyph unicode="[" glyph-name="bracketleft" horiz-adv-x="319" d="M78 817H239V733L169 723V-20L239 -30V-114H78V817Z" />
<glyph unicode="\" glyph-name="backslash" horiz-adv-x="537" d="M75 817H173L497 -114H400L75 817Z" />
<glyph unicode="]" glyph-name="bracketright" horiz-adv-x="319" d="M78 -30L148 -20V723L78 733V817H239V-114H78V-30Z" />
<glyph unicode="^" glyph-name="asciicircum" horiz-adv-x="405" d="M225 809L134 719L78 758L226 899L368 758L311 719L225 809Z" />
<glyph unicode="_" glyph-name="underscore" horiz-adv-x="347" d="M70 0H390V-68H70V0Z" />
<glyph unicode="`" glyph-name="grave" horiz-adv-x="222" d="M58 663Q47 677 47 693Q47 705 53 714T70 728Q76 731 85 731Q98 731 110 724T129 701L177 590H114L58 663Z" />
<glyph unicode="a" glyph-name="a" horiz-adv-x="458" d="M314 -11T266 -11Q161 -11 99 28T37 169V252Q37 351 106 385Q139 401 184 401Q224 401 265 389T331 361Q331 403 299 424T207 445L214 509Q310 509 355 479T411 406T422 298V0Q314 -11 266 -11ZM305 285T268
297T199 309Q128 309 128 242V176Q128 73 260 73Q292 73 331 79V270Q305 285 268 297Z" />
<glyph unicode="b" glyph-name="b" horiz-adv-x="484" d="M447 106T426 71T369 18Q337 2 305 -5T235 -12Q198 -12 133 -5L78 0V700H169V491Q214 510 267 510Q319 510 362 490Q447 451 447 346V157Q447 106 426 71ZM357 375T329 397T257 420Q232 420 208 414T169
397V79Q196 73 229 73Q282 73 319 92T357 155V325Q357 375 329 397Z" />
<glyph unicode="c" glyph-name="c" horiz-adv-x="383" d="M296 -10T238 -10Q184 -10 148 2Q89 22 63 63T36 180V308Q36 407 88 458T222 510Q287 510 356 478L331 402Q282 422 238 422Q186 422 157 394T127 314V169Q127 121 160 100T244 79Q289 79 334 92L358 6Q296
-10 238 -10Z" />
<glyph unicode="d" glyph-name="d" horiz-adv-x="484" d="M78 451T163 490Q206 510 260 510Q288 510 313 505T357 490V700H447V0L392 -5Q327 -12 290 -12Q253 -12 221 -5T156 18Q120 36 99 71T78 157V346Q78 451 163 490ZM316 419T268 419Q224 419 196 395T168
319V152Q168 113 201 93T289 72Q319 72 357 80V397Q316 419 268 419Z" />
<glyph unicode="e" glyph-name="e" horiz-adv-x="434" d="M334 12T288 0T196 -12Q122 -12 79 24T35 134V339Q35 420 85 465T219 510Q302 510 348 466T395 342V198L127 183V144Q127 109 147 91T205 72Q260 72 336 112L370 35Q334 12 288 0ZM303 384T277 403T218
423Q175 423 151 400T127 338V268L303 278V343Q303 384 277 403Z" />
<glyph unicode="f" glyph-name="f" horiz-adv-x="314" d="M78 549Q78 636 122 673T233 711Q258 711 277 707L262 625Q250 628 238 628Q209 628 190 610T170 549V501H267L243 415H170V0H78V549Z" />
<glyph unicode="g" glyph-name="g" horiz-adv-x="448" d="M323 -130T323 -52V27Q312 10 287 -1T223 -12Q135 -12 86 36T37 176V325Q37 413 88 461T227 510Q262 510 288 500T325 474L337 501H414V-64Q414 -130 381 -167T274 -210L252 -139Q323 -130 323 -52ZM323
370T298 395T223 421Q178 421 153 394T128 320V183Q128 133 151 104T223 75Q274 75 298 109T323 211V322Q323 370 298 395Z" />
<glyph unicode="h" glyph-name="h" horiz-adv-x="493" d="M342 320Q342 376 315 400T244 425Q220 425 196 419T155 402V0H64V700H155V489Q172 498 198 504T254 510Q307 510 348 491Q388 473 410 437T433 346V0H342V320Z" />
<glyph unicode="i" glyph-name="i" horiz-adv-x="258" d="M109 610T94 625T78 661Q78 680 93 695T129 710Q149 710 163 696T178 661Q178 641 163 626T129 610Q109 610 94 625ZM81 501H172V0H81V501Z" />
<glyph unicode="j" glyph-name="j" horiz-adv-x="221" d="M98 610T83 625T67 661Q67 681 82 695T118 710Q138 710 152 696T167 661Q167 641 153 626T118 610Q98 610 83 625ZM22 423L-1 501H162V-75Q161 -112 141 -143T89 -191T20 -209L-2 -139Q-2 -142 18 -134T55
-104T71 -42V415L22 423Z" />
<glyph unicode="k" glyph-name="k" horiz-adv-x="460" d="M183 276L156 251V0H65V700H156V366L323 520L390 456L253 339L270 311Q377 133 461 0H348L183 276Z" />
<glyph unicode="l" glyph-name="l" horiz-adv-x="249" d="M78 700H169V0H78V700Z" />
<glyph unicode="m" glyph-name="m" horiz-adv-x="739" d="M611 318Q611 424 532 424Q500 424 461 409L437 399Q441 391 443 378T446 352V0H355V316Q355 370 328 397T258 424Q213 424 169 398V0H78V501H161L167 485Q213 509 264 509Q299 509 330 497T385 461Q399
469 427 483Q486 510 541 510Q612 510 657 467T702 346V0H611V318Z" />
<glyph unicode="n" glyph-name="n" horiz-adv-x="500" d="M342 325Q342 373 314 397T241 422Q195 422 154 400V0H64V501H147L154 485Q174 496 202 502T260 509Q311 509 348 491Q388 473 410 437T433 346V0H342V325Z" />
<glyph unicode="o" glyph-name="o" horiz-adv-x="488" d="M451 100T405 45T266 -10Q173 -10 126 45T78 184V316Q78 411 126 461T266 512Q353 512 402 460T451 316V184Q451 100 405 45ZM361 422T266 422Q223 422 196 398T169 316V174Q169 127 196 103T266 78Q309
78 335 103T361 174V316Q361 422 266 422Z" />
<glyph unicode="p" glyph-name="p" horiz-adv-x="492" d="M78 501H165L167 479Q182 492 210 500T265 509Q358 509 406 455T455 315V176Q455 85 404 37T269 -12Q232 -12 211 -6T169 16V-188L78 -210V501ZM364 370T339 395T269 421Q224 421 197 396T169 324V180Q169
132 193 105T269 77Q318 77 341 104T364 189V319Q364 370 339 395Z" />
<glyph unicode="q" glyph-name="q" horiz-adv-x="448" d="M324 17Q306 2 284 -5T223 -12Q139 -12 88 36T37 176V314Q37 400 85 454T227 509Q259 509 281 501T325 476L328 501H414V-210L324 -188V17ZM323 376T293 398T223 421Q187 421 157 398T127 308V174Q127
127 152 102T223 77Q324 77 324 184V317Q323 376 293 398Z" />
<glyph unicode="r" glyph-name="r" horiz-adv-x="364" d="M61 501H147L151 486Q194 509 246 509Q282 509 330 498L308 411Q281 423 250 423Q209 423 181 403T152 346V0H61V501Z" />
<glyph unicode="s" glyph-name="s" horiz-adv-x="431" d="M128 107T154 89T221 70Q258 70 282 88T307 136Q307 171 281 189T200 225Q155 240 126 254T75 295T48 365Q45 399 61 433T117 490T219 513Q251 513 275 507T314 493T331 484L304 402Q302 404 292 409T263
420T219 426Q176 426 159 409T145 365Q148 345 170 332T237 304Q288 286 321 269T378 219T402 135Q402 72 357 29T221 -15Q164 -15 123 4T60 56T36 127L126 134Q128 107 154 89Z" />
<glyph unicode="t" glyph-name="t" horiz-adv-x="263" d="M106 -7T75 31T44 132V700H136V501H240L216 415H136V132Q136 97 154 81T207 59L180 -13Q106 -7 75 31Z" />
<glyph unicode="u" glyph-name="u" horiz-adv-x="447" d="M320 22Q302 7 277 -2T224 -11Q36 -11 36 172V501H127V180Q127 128 150 103T224 77Q274 77 296 104T318 183V501H409V0H323L320 22Z" />
<glyph unicode="v" glyph-name="v" horiz-adv-x="443" d="M14 501H113L220 147L326 501H424L267 0H172L14 501Z" />
<glyph unicode="w" glyph-name="w" horiz-adv-x="708" d="M352 315L269 0H172L14 501H113L218 147L311 501H398L491 147L591 501H689L529 0H434L352 315Z" />
<glyph unicode="x" glyph-name="x" horiz-adv-x="529" d="M279 160L179 0H67L223 249L67 501H179L279 338L382 501H492L334 250L487 0H379L279 160Z" />
<glyph unicode="y" glyph-name="y" horiz-adv-x="497" d="M284 -133T303 -114T322 -58V18Q290 -12 220 -12Q132 -12 85 35T37 176V501H127V192Q127 129 150 103T220 77Q270 77 296 102T322 192V363Q322 418 349 459T431 510L463 438Q437 431 425 412T412 366V-61Q412
-125 384 -161T288 -210L255 -138Q284 -133 303 -114Z" />
<glyph unicode="z" glyph-name="z" horiz-adv-x="482" d="M78 85L310 416H87V501H431V418L198 85H445V0H78V85Z" />
<glyph unicode="{" glyph-name="braceleft" horiz-adv-x="344" d="M229 -97T202 -72T164 -2T152 127V247Q152 274 131 299T78 354Q102 373 126 404T150 462V567Q150 652 161 701T201 779T280 822L305 749Q241 732 241 631V456Q241 430 223 403T183 355Q243 295
243 253V79Q243 23 259 -4T307 -39L281 -116Q229 -97 202 -72Z" />
<glyph unicode="|" glyph-name="bar" horiz-adv-x="249" d="M78 817H169V-114H78V817Z" />
<glyph unicode="}" glyph-name="braceright" horiz-adv-x="344" d="M109 -31T125 -4T142 79V253Q142 295 202 355Q181 376 163 403T144 456V631Q144 732 80 749L105 822Q156 808 184 780T223 702T235 567V462Q235 435 259 404T307 354Q275 325 254 300T233 247V127Q233
44 222 -1T183 -72T104 -116L78 -39Q109 -31 125 -4Z" />
<glyph unicode="~" glyph-name="asciitilde" horiz-adv-x="531" d="M451 264T387 264Q366 264 344 268T291 282Q260 291 240 295T200 300Q149 300 114 260L78 319Q124 375 190 375Q211 375 233 371T287 357Q310 351 333 346T375 341Q423 341 456 379L494 320Q451
264 387 264Z" />
<glyph unicode="&#xa0;" glyph-name="uni00A0" horiz-adv-x="278" />
<glyph unicode="&#xa1;" glyph-name="exclamdown" horiz-adv-x="257" d="M109 621T96 634T83 666Q83 684 96 697T127 710Q146 710 159 697T172 666Q172 647 159 634T127 621Q109 621 96 634ZM160 590L177 57Q177 0 126 0Q99 0 89 17T78 58L94 590H160Z" />
<glyph unicode="&#xa2;" glyph-name="cent" horiz-adv-x="437" d="M226 -6Q211 -4 190 2Q131 22 105 63T78 180V308Q78 395 118 445T226 507V623H316V504Q354 497 398 478L373 402Q345 413 316 418V80Q344 83 376 92L400 6Q355 -5 316 -8V-114H226V-6ZM199 400T184
375T169 314V169Q169 108 226 87V412Q199 400 184 375Z" />
<glyph unicode="&#xa3;" glyph-name="sterling" horiz-adv-x="475" d="M78 83Q132 92 162 130T192 225Q192 254 178 303H101V393H149Q137 428 131 455T125 515Q125 573 150 617T219 685T318 709Q387 709 427 684L399 602Q361 623 318 623Q265 623 240 588T215
513Q215 488 222 460T242 393H421V303H271Q285 249 283 221Q280 178 269 148T231 85H438V0H78V83Z" />
<glyph unicode="&#xa4;" glyph-name="currency" horiz-adv-x="491" d="M335 160T315 154T267 148Q215 148 179 172L144 133L84 195L118 228Q106 244 99 269T92 323Q92 370 116 411L79 447L145 509L177 474Q215 499 267 499Q324 499 354 474L390 510L453 447L417
415Q431 387 437 369T443 323Q443 296 437 278T416 229L450 196L391 134L354 172Q335 160 315 154ZM357 360T331 387T267 414Q229 414 202 388T175 323Q175 286 202 260T267 234Q304 234 330 260T357 323Q357 360 331 387Z" />
<glyph unicode="&#xa5;" glyph-name="yen" horiz-adv-x="587" d="M268 221H156V309H268V324L251 357H156V445H207L78 700H175L302 445H323L452 700H550L421 445H476V357H376L360 324V309H476V221H360V0H268V221Z" />
<glyph unicode="&#xa7;" glyph-name="section" horiz-adv-x="591" d="M173 -32T189 -56T236 -97T313 -113Q371 -113 415 -88T459 -4Q459 32 439 56T387 95T302 129Q236 153 194 174T123 236T93 340Q93 367 102 395T128 445Q96 485 96 540Q96 584 121 623T196 687T321
712Q370 712 402 705T467 682L460 662Q456 650 450 633T437 596Q407 611 381 618T323 625Q252 625 221 601T190 537Q190 511 208 493T252 462T328 433Q399 408 444 385T521 318T554 205Q554 174 548 143T530 92Q553 57 553 6Q553 -86 495 -141T314 -197Q240 -197
188 -170T108 -99T78 -8H172Q173 -32 189 -56ZM462 186T462 209Q462 248 436 276T374 320T281 358Q221 378 200 392Q186 370 186 334Q186 299 206 277T257 240T340 209Q383 194 408 184T455 160Q462 186 462 209Z" />
<glyph unicode="&#xa8;" glyph-name="dieresis" horiz-adv-x="222" d="M164 664T152 676T140 705Q140 722 152 734T181 746Q198 746 210 734T222 705Q222 688 210 676T181 664Q164 664 152 676ZM81 687T69 676T40 664Q24 664 12 676T0 704Q0 721 11 733T40 745Q57
745 69 733T81 704Q81 687 69 676Z" />
<glyph unicode="&#xa9;" glyph-name="copyright" horiz-adv-x="800" d="M299 -127T213 -78T76 58T25 249Q25 353 75 438T211 572T401 621Q504 621 589 572T724 438T774 249Q774 144 724 58T588 -77T401 -127Q299 -127 213 -78ZM478 -38T542 -2T644 100T682 249Q682
327 644 391T542 494T401 532Q323 532 258 496T156 395T118 249Q118 165 155 100T258 -1T401 -38Q478 -38 542 -2ZM583 103T529 60T405 16Q339 16 291 46T217 128T191 247Q191 309 216 361T289 446T403 478Q476 478 531 435T598 323H507Q501 348 471 366T402 385Q340
385 311 346T281 248Q281 188 312 148T403 108Q444 108 474 127T507 175H599Q583 103 529 60Z" />
<glyph unicode="&#xaa;" glyph-name="ordfeminine" horiz-adv-x="384" d="M265 379T230 379Q158 379 118 410T78 519Q78 572 106 602T180 632Q225 632 272 604Q272 629 259 642T200 655Q183 655 173 654L181 709Q250 711 285 696T334 647T347 555V391Q265 379
230 379ZM224 565T191 565Q148 565 148 513Q148 447 225 447Q245 447 272 452V538Q224 565 191 565Z" />
<glyph unicode="&#xab;" glyph-name="guillemotleft" horiz-adv-x="511" d="M42 267V268L229 455L289 395L159 267L288 136L229 80L42 267ZM262 267V268L449 455L509 395L379 267L508 136L449 80L262 267Z" />
<glyph unicode="&#xad;" glyph-name="uni00AD" horiz-adv-x="410" d="M45 413H365V325H45V413Z" />
<glyph unicode="&#xae;" glyph-name="registered" horiz-adv-x="800" d="M299 -127T213 -78T76 58T25 249Q25 353 75 438T211 572T401 621Q504 621 589 572T724 438T774 249Q774 144 724 58T588 -77T401 -127Q299 -127 213 -78ZM478 -38T542 -2T644 100T682 249Q682
327 644 391T542 494T401 532Q323 532 258 496T156 395T118 249Q118 165 155 100T258 -1T401 -38Q478 -38 542 -2ZM393 229H360V39H273V476H403Q480 476 518 444T557 351Q557 310 539 282T476 239L566 39H473L393 229ZM432 302T450 313T468 351Q468 374 452 388T413
402H360V302H400Q432 302 450 313Z" />
<glyph unicode="&#xaf;" glyph-name="overscore" horiz-adv-x="336" d="M78 698H299V619H78V698Z" />
<glyph unicode="&#xb0;" glyph-name="degree" horiz-adv-x="403" d="M183 421T150 440T98 493T78 565Q78 604 97 637T150 689T222 709Q261 709 294 690T346 637T366 565Q366 526 347 493T294 441T222 421Q183 421 150 440ZM288 591T270 611T222 631Q193 631 175
611T156 565Q156 539 174 519T222 499Q251 499 269 519T288 565Q288 591 270 611Z" />
<glyph unicode="&#xb1;" glyph-name="plusminus" horiz-adv-x="435" d="M78 301H195V351H78V429H195V545H280V429H398V351H280V301H398V218H78V301Z" />
<glyph unicode="&#xb4;" glyph-name="acute" horiz-adv-x="222" d="M94 699Q100 714 112 721T138 729Q147 729 153 726Q164 721 170 712T176 691Q176 675 165 661L109 588H46L94 699Z" />
<glyph unicode="&#xb5;" glyph-name="uni00B5" horiz-adv-x="478" d="M367 -7T360 -2T346 13Q334 2 310 -5T255 -12L236 -11Q182 -4 157 8T128 21V-210L37 -201V501H128V109Q132 105 150 97T194 81T244 74Q325 74 325 180V497L417 510V69Q417 64 423 50T444 27L370
-6Q367 -7 360 -2Z" />
<glyph unicode="&#xb6;" glyph-name="paragraph" horiz-adv-x="703" d="M580 658L512 659V-198L424 -199V246H255Q173 246 135 286T87 383T78 524Q78 624 124 687T264 750H667V-199H580V658Z" />
<glyph unicode="&#xb8;" glyph-name="cedilla" horiz-adv-x="260" d="M126 -155T142 -159T179 -163Q203 -163 221 -153T239 -122Q239 -108 230 -100T204 -91Q185 -91 164 -101L123 -120L94 -78L155 0H216L184 -44Q200 -37 219 -37Q253 -37 278 -59T303 -122Q303
-175 262 -199T169 -224Q125 -224 70 -204L101 -138Q126 -155 142 -159Z" />
<glyph unicode="&#xbb;" glyph-name="guillemotright" horiz-adv-x="517" d="M132 267L1 395L61 455L248 268V267L61 80L2 136L132 267ZM352 267L221 395L281 455L468 268V267L281 80L222 136L352 267Z" />
<glyph unicode="&#xbf;" glyph-name="questiondown" horiz-adv-x="480" d="M259 620T246 633T233 665Q233 683 246 696T278 709Q296 709 309 696T322 665Q322 646 309 633T278 620Q259 620 246 633ZM443 129T423 89T363 24T265 0Q214 0 172 25T104 92T79 182Q79
238 114 289Q131 314 147 331T167 352Q191 377 203 395T224 444T232 527Q232 527 232 564V590H321V497Q321 452 309 417T281 358T236 301Q206 266 197 253Q172 215 172 180Q172 140 198 114T258 87Q301 87 325 111T350 177H443Q443 129 423 89Z" />
<glyph unicode="&#xc0;" glyph-name="Agrave" horiz-adv-x="527" d="M163 806Q152 820 152 836Q152 848 158 857T175 871Q181 874 190 874Q203 874 215 867T234 844L282 733H219L163 806ZM356 205H172L119 0H18L203 700H322L517 0H411L356 205ZM194 300H334L262
550L194 300Z" />
<glyph unicode="&#xc1;" glyph-name="Aacute" horiz-adv-x="527" d="M282 842Q288 857 300 864T326 872Q335 872 341 869Q352 864 358 855T364 834Q364 818 353 804L297 731H234L282 842ZM356 205H172L119 0H18L203 700H322L517 0H411L356 205ZM194 300H334L262
550L194 300Z" />
<glyph unicode="&#xc2;" glyph-name="Acircumflex" horiz-adv-x="527" d="M266 822L175 732L119 771L267 912L409 771L352 732L266 822ZM356 205H172L119 0H18L203 700H322L517 0H411L356 205ZM194 300H334L262 550L194 300Z" />
<glyph unicode="&#xc3;" glyph-name="Atilde" horiz-adv-x="527" d="M398 729T349 729Q332 729 317 734T275 750Q231 771 203 771Q166 771 130 734L96 790Q141 842 191 842Q209 842 225 837T267 821Q293 811 307 807T336 802Q373 802 405 837L441 781Q398 729
349 729ZM356 205H172L119 0H18L203 700H322L517 0H411L356 205ZM194 300H334L262 550L194 300Z" />
<glyph unicode="&#xc4;" glyph-name="Adieresis" horiz-adv-x="527" d="M315 731T303 743T291 772Q291 789 303 801T332 813Q349 813 361 801T373 772Q373 755 361 743T332 731Q315 731 303 743ZM232 754T220 743T191 731Q175 731 163 743T151 771Q151 788 162
800T191 812Q208 812 220 800T232 771Q232 754 220 743ZM356 205H172L119 0H18L203 700H322L517 0H411L356 205ZM194 300H334L262 550L194 300Z" />
<glyph unicode="&#xc5;" glyph-name="Aring" horiz-adv-x="527" d="M356 205H172L119 0H18L198 682Q177 697 166 720T154 770Q154 815 186 847T263 879Q308 879 340 847T372 770Q372 743 360 720T327 681L517 0H411L356 205ZM306 788T294 800T263 813Q245 813
233 801T220 770Q220 752 232 740T263 727Q281 727 293 739T306 770Q306 788 294 800ZM194 300H334L262 550L194 300Z" />
<glyph unicode="&#xc6;" glyph-name="AE" horiz-adv-x="816" d="M445 212H293L183 0H78L444 700H779V610H536V413H702L673 325H536V83H777V0H444L445 212ZM338 300H445V507L338 300Z" />
<glyph unicode="&#xc7;" glyph-name="Ccedilla" horiz-adv-x="432" d="M184 -155T200 -159T237 -163Q261 -163 279 -153T297 -122Q297 -108 288 -100T262 -91Q243 -91 222 -101L181 -120L152 -78L208 -6Q143 6 105 52T66 183V504Q66 580 87 619T153 685Q197 710
261 710Q339 710 402 677L376 599Q328 617 273 617Q225 617 191 592T157 513V185Q157 82 274 82Q334 82 412 107L427 23Q345 -9 266 -10L242 -44Q258 -37 277 -37Q311 -37 336 -59T361 -122Q361 -175 320 -199T227 -224Q183 -224 128 -204L159 -138Q184 -155 200
-159Z" />
<glyph unicode="&#xc8;" glyph-name="Egrave" horiz-adv-x="465" d="M157 805Q146 819 146 835Q146 847 152 856T169 870Q175 873 184 873Q197 873 209 866T228 843L276 732H213L157 805ZM78 700H412V610H169V413H325L298 325H169V82H410V0H78V700Z" />
<glyph unicode="&#xc9;" glyph-name="Eacute" horiz-adv-x="465" d="M285 841Q291 856 303 863T329 871Q338 871 344 868Q355 863 361 854T367 833Q367 817 356 803L300 730H237L285 841ZM78 700H412V610H169V413H325L298 325H169V82H410V0H78V700Z" />
<glyph unicode="&#xca;" glyph-name="Ecircumflex" horiz-adv-x="465" d="M249 822L158 732L102 771L250 912L392 771L335 732L249 822ZM78 700H412V610H169V413H325L298 325H169V82H410V0H78V700Z" />
<glyph unicode="&#xcb;" glyph-name="Edieresis" horiz-adv-x="465" d="M295 731T283 743T271 772Q271 789 283 801T312 813Q329 813 341 801T353 772Q353 755 341 743T312 731Q295 731 283 743ZM212 754T200 743T171 731Q155 731 143 743T131 771Q131 788 142
800T171 812Q188 812 200 800T212 771Q212 754 200 743ZM78 700H412V610H169V413H325L298 325H169V82H410V0H78V700Z" />
<glyph unicode="&#xcc;" glyph-name="Igrave" horiz-adv-x="316" d="M111 805Q100 819 100 835Q100 847 106 856T123 870Q129 873 138 873Q151 873 163 866T182 843L230 732H167L111 805ZM144 612L81 614V700H236V0H144V612Z" />
<glyph unicode="&#xcd;" glyph-name="Iacute" horiz-adv-x="371" d="M208 841Q214 856 226 863T252 871Q261 871 267 868Q278 863 284 854T290 833Q290 817 279 803L223 730H160L208 841ZM141 612L78 614V700H233V0H141V612Z" />
<glyph unicode="&#xce;" glyph-name="Icircumflex" horiz-adv-x="448" d="M225 822L134 732L78 771L226 912L368 771L311 732L225 822ZM182 612L119 614V700H274V0H182V612Z" />
<glyph unicode="&#xcf;" glyph-name="Idieresis" horiz-adv-x="380" d="M242 729T230 741T218 770Q218 787 230 799T259 811Q276 811 288 799T300 770Q300 753 288 741T259 729Q242 729 230 741ZM159 752T147 741T118 729Q102 729 90 741T78 769Q78 786 89 798T118
810Q135 810 147 798T159 769Q159 752 147 741ZM158 612L95 614V700H250V0H158V612Z" />
<glyph unicode="&#xd0;" glyph-name="Eth" horiz-adv-x="642" d="M127 425H78V513H127V701H315Q416 701 474 650T544 513H605V425H547V200Q547 0 335 0H127V425ZM218 513H454Q446 563 412 587T325 611H218V513ZM218 425V83H319Q380 83 418 104T456 190V425H218Z" />
<glyph unicode="&#xd1;" glyph-name="Ntilde" horiz-adv-x="650" d="M460 728T411 728Q394 728 379 733T337 749Q293 770 265 770Q228 770 192 733L158 789Q204 841 253 841Q271 841 287 836T329 820Q355 810 369 806T398 801Q435 801 467 836L503 780Q460 728
411 728ZM169 516V0H78V700H169L478 186V700H570V0H478L169 516Z" />
<glyph unicode="&#xd2;" glyph-name="Ograve" horiz-adv-x="549" d="M179 805Q168 819 168 835Q168 847 174 856T191 870Q197 873 206 873Q219 873 231 866T250 843L298 732H235L179 805ZM483 84T422 37T274 -11Q220 -11 172 8T94 72T63 185V507Q63 610 119 663T275
716Q374 716 428 660T483 506V185Q483 84 422 37ZM392 552T365 586T273 620Q209 620 182 587T154 487V198Q154 142 185 111T273 80Q327 80 359 111T392 199V486Q392 552 365 586Z" />
<glyph unicode="&#xd3;" glyph-name="Oacute" horiz-adv-x="549" d="M305 841Q311 856 323 863T349 871Q358 871 364 868Q375 863 381 854T387 833Q387 817 376 803L320 730H257L305 841ZM483 84T422 37T274 -11Q220 -11 172 8T94 72T63 185V507Q63 610 119 663T275
716Q374 716 428 660T483 506V185Q483 84 422 37ZM392 552T365 586T273 620Q209 620 182 587T154 487V198Q154 142 185 111T273 80Q327 80 359 111T392 199V486Q392 552 365 586Z" />
<glyph unicode="&#xd4;" glyph-name="Ocircumflex" horiz-adv-x="549" d="M278 822L187 732L131 771L279 912L421 771L364 732L278 822ZM483 84T422 37T274 -11Q220 -11 172 8T94 72T63 185V507Q63 610 119 663T275 716Q374 716 428 660T483 506V185Q483 84 422
37ZM392 552T365 586T273 620Q209 620 182 587T154 487V198Q154 142 185 111T273 80Q327 80 359 111T392 199V486Q392 552 365 586Z" />
<glyph unicode="&#xd5;" glyph-name="Otilde" horiz-adv-x="549" d="M413 730T364 730Q347 730 332 735T290 751Q246 772 218 772Q181 772 145 735L111 791Q157 843 206 843Q224 843 240 838T282 822Q308 812 322 808T351 803Q388 803 420 838L456 782Q413 730
364 730ZM483 84T422 37T274 -11Q220 -11 172 8T94 72T63 185V507Q63 610 119 663T275 716Q374 716 428 660T483 506V185Q483 84 422 37ZM392 552T365 586T273 620Q209 620 182 587T154 487V198Q154 142 185 111T273 80Q327 80 359 111T392 199V486Q392 552 365
586Z" />
<glyph unicode="&#xd6;" glyph-name="Odieresis" horiz-adv-x="549" d="M324 731T312 743T300 772Q300 789 312 801T341 813Q358 813 370 801T382 772Q382 755 370 743T341 731Q324 731 312 743ZM241 754T229 743T200 731Q184 731 172 743T160 771Q160 788 171
800T200 812Q217 812 229 800T241 771Q241 754 229 743ZM483 84T422 37T274 -11Q220 -11 172 8T94 72T63 185V507Q63 610 119 663T275 716Q374 716 428 660T483 506V185Q483 84 422 37ZM392 552T365 586T273 620Q209 620 182 587T154 487V198Q154 142 185 111T273
80Q327 80 359 111T392 199V486Q392 552 365 586Z" />
<glyph unicode="&#xd7;" glyph-name="multiply" horiz-adv-x="419" d="M230 270L139 160L80 213L178 333L78 453L138 504L230 394L321 505L382 455L281 333L381 213L321 161L230 270Z" />
<glyph unicode="&#xd8;" glyph-name="Oslash" horiz-adv-x="550" d="M140 41Q83 91 83 185V507Q83 610 139 663T295 716Q335 716 371 705L410 817H508L452 657Q503 600 503 506V185Q503 84 442 37T294 -11Q257 -11 222 -2L183 -114H86L140 41ZM319 620T293 620Q229
620 202 587T174 487V198Q174 175 180 155L339 614Q319 620 293 620ZM412 503T408 531L252 85Q268 80 293 80Q347 80 379 111T412 199V486Q412 503 408 531Z" />
<glyph unicode="&#xd9;" glyph-name="Ugrave" horiz-adv-x="566" d="M197 805Q186 819 186 835Q186 847 192 856T209 870Q215 873 224 873Q237 873 249 866T268 843L316 732H253L197 805ZM495 701V186Q495 85 434 39T285 -7Q198 -7 136 39T74 186V701H165V212Q165
81 284 81Q404 81 404 212V701H495Z" />
<glyph unicode="&#xda;" glyph-name="Uacute" horiz-adv-x="566" d="M301 842Q307 857 319 864T345 872Q354 872 360 869Q371 864 377 855T383 834Q383 818 372 804L316 731H253L301 842ZM495 701V186Q495 85 434 39T285 -7Q198 -7 136 39T74 186V701H165V212Q165
81 284 81Q404 81 404 212V701H495Z" />
<glyph unicode="&#xdb;" glyph-name="Ucircumflex" horiz-adv-x="566" d="M287 822L196 732L140 771L288 912L430 771L373 732L287 822ZM495 701V186Q495 85 434 39T285 -7Q198 -7 136 39T74 186V701H165V212Q165 81 284 81Q404 81 404 212V701H495Z" />
<glyph unicode="&#xdc;" glyph-name="Udieresis" horiz-adv-x="566" d="M336 731T324 743T312 772Q312 789 324 801T353 813Q370 813 382 801T394 772Q394 755 382 743T353 731Q336 731 324 743ZM253 754T241 743T212 731Q196 731 184 743T172 771Q172 788 183
800T212 812Q229 812 241 800T253 771Q253 754 241 743ZM495 701V186Q495 85 434 39T285 -7Q198 -7 136 39T74 186V701H165V212Q165 81 284 81Q404 81 404 212V701H495Z" />
<glyph unicode="&#xdd;" glyph-name="Yacute" horiz-adv-x="552" d="M292 842Q298 857 310 864T336 872Q345 872 351 869Q362 864 368 855T374 834Q374 818 363 804L307 731H244L292 842ZM365 59T385 82T405 160V246Q383 231 350 222T281 212Q177 212 115 269T52
427V700H143V430Q143 366 179 334T281 302Q332 302 363 319T405 363V700H496V156Q496 79 465 36T362 -15L335 53Q365 59 385 82Z" />
<glyph unicode="&#xde;" glyph-name="Thorn" horiz-adv-x="492" d="M78 700H168V479Q186 492 212 500T265 509Q358 509 406 455T455 315Q455 221 404 169T269 116Q243 116 215 125T168 155V0H78V700ZM308 202T336 229T365 317Q365 363 339 393T269 423Q230 423
200 396T168 320Q168 259 197 231T269 202Q308 202 336 229Z" />
<glyph unicode="&#xdf;" glyph-name="germandbls" horiz-adv-x="545" d="M78 537Q78 612 119 656T232 701Q280 701 313 682T362 631T378 565Q378 539 369 515T342 476L319 477Q310 461 310 446Q310 422 328 401T388 341Q428 307 448 285Q508 221 508 148Q508 108
490 71Q469 29 429 9T340 -12Q300 -12 261 1T195 37L237 119Q260 98 286 87T336 76Q357 76 374 84T399 106Q413 129 413 151Q413 193 365 243Q349 260 317 288Q266 334 241 367T215 441Q215 472 234 507Q260 507 274 523T288 561Q288 583 275 598T237 614Q169 614
169 518V0H78V537Z" />
<glyph unicode="&#xe0;" glyph-name="agrave" horiz-adv-x="500" d="M179 613Q168 627 168 643Q168 655 174 664T191 678Q197 681 206 681Q219 681 231 674T250 651L298 540H235L179 613ZM355 -11T307 -11Q202 -11 140 28T78 169V252Q78 351 147 385Q180 401 225
401Q265 401 306 389T372 361Q372 403 340 424T248 445L255 509Q351 509 396 479T452 406T463 298V0Q355 -11 307 -11ZM346 285T309 297T240 309Q169 309 169 242V176Q169 73 301 73Q333 73 372 79V270Q346 285 309 297Z" />
<glyph unicode="&#xe1;" glyph-name="aacute" horiz-adv-x="500" d="M306 649Q312 664 324 671T350 679Q359 679 365 676Q376 671 382 662T388 641Q388 625 377 611L321 538H258L306 649ZM355 -11T307 -11Q202 -11 140 28T78 169V252Q78 351 147 385Q180 401 225
401Q265 401 306 389T372 361Q372 403 340 424T248 445L255 509Q351 509 396 479T452 406T463 298V0Q355 -11 307 -11ZM346 285T309 297T240 309Q169 309 169 242V176Q169 73 301 73Q333 73 372 79V270Q346 285 309 297Z" />
<glyph unicode="&#xe2;" glyph-name="acircumflex" horiz-adv-x="500" d="M282 629L191 539L135 578L283 719L425 578L368 539L282 629ZM355 -11T307 -11Q202 -11 140 28T78 169V252Q78 351 147 385Q180 401 225 401Q265 401 306 389T372 361Q372 403 340 424T248
445L255 509Q351 509 396 479T452 406T463 298V0Q355 -11 307 -11ZM346 285T309 297T240 309Q169 309 169 242V176Q169 73 301 73Q333 73 372 79V270Q346 285 309 297Z" />
<glyph unicode="&#xe3;" glyph-name="atilde" horiz-adv-x="500" d="M405 540T356 540Q339 540 324 545T282 561Q238 582 210 582Q173 582 137 545L103 601Q148 653 198 653Q216 653 232 648T274 632Q300 622 314 618T343 613Q380 613 412 648L448 592Q405 540
356 540ZM355 -11T307 -11Q202 -11 140 28T78 169V252Q78 351 147 385Q180 401 225 401Q265 401 306 389T372 361Q372 403 340 424T248 445L255 509Q351 509 396 479T452 406T463 298V0Q355 -11 307 -11ZM346 285T309 297T240 309Q169 309 169 242V176Q169 73 301
73Q333 73 372 79V270Q346 285 309 297Z" />
<glyph unicode="&#xe4;" glyph-name="adieresis" horiz-adv-x="500" d="M334 539T322 551T310 580Q310 597 322 609T351 621Q368 621 380 609T392 580Q392 563 380 551T351 539Q334 539 322 551ZM251 562T239 551T210 539Q194 539 182 551T170 579Q170 596 181
608T210 620Q227 620 239 608T251 579Q251 562 239 551ZM355 -11T307 -11Q202 -11 140 28T78 169V252Q78 351 147 385Q180 401 225 401Q265 401 306 389T372 361Q372 403 340 424T248 445L255 509Q351 509 396 479T452 406T463 298V0Q355 -11 307 -11ZM346 285T309
297T240 309Q169 309 169 242V176Q169 73 301 73Q333 73 372 79V270Q346 285 309 297Z" />
<glyph unicode="&#xe5;" glyph-name="aring" horiz-adv-x="500" d="M355 -11T307 -11Q202 -11 140 28T78 169V252Q78 351 147 385Q180 401 225 401Q265 401 306 389T372 361Q372 403 340 424T248 445V446Q207 451 180 481T152 554Q152 599 184 631T261 663Q306
663 338 631T370 554Q370 523 354 497Q405 482 428 452T457 386T463 298V0Q355 -11 307 -11ZM304 572T292 584T261 597Q243 597 231 585T218 554Q218 536 230 524T261 511Q279 511 291 523T304 554Q304 572 292 584ZM346 285T309 297T240 309Q169 309 169 242V176Q169
73 301 73Q333 73 372 79V270Q346 285 309 297Z" />
<glyph unicode="&#xe6;" glyph-name="ae" horiz-adv-x="769" d="M671 12T625 0T533 -12Q491 -12 458 0Q364 -10 306 -10Q202 -10 140 28T78 169V252Q78 351 147 385Q180 401 225 401Q265 401 306 389T372 361Q372 403 340 424T248 445L255 509Q369 509 419 462Q443
485 478 497T556 510Q639 510 685 466T732 342V198L464 183V144Q464 109 484 91T542 72Q597 72 673 112L707 35Q671 12 625 0ZM640 384T614 403T555 423Q512 423 488 400T464 338V268L640 278V343Q640 384 614 403ZM346 285T309 297T240 309Q169 309 169 242V176Q169
73 301 73Q333 73 372 79V270Q346 285 309 297Z" />
<glyph unicode="&#xe7;" glyph-name="ccedilla" horiz-adv-x="383" d="M143 -155T159 -159T196 -163Q220 -163 238 -153T256 -122Q256 -108 247 -100T221 -91Q202 -91 181 -101L140 -120L111 -78L169 -3Q162 -2 148 2Q89 22 63 63T36 180V308Q36 407 88 458T222
510Q287 510 356 478L331 402Q282 422 238 422Q186 422 157 394T127 314V169Q127 121 160 100T244 79Q289 79 334 92L358 6Q283 -13 225 -10L201 -44Q217 -37 236 -37Q270 -37 295 -59T320 -122Q320 -175 279 -199T186 -224Q142 -224 87 -204L118 -138Q143 -155
159 -159Z" />
<glyph unicode="&#xe8;" glyph-name="egrave" horiz-adv-x="475" d="M171 613Q160 627 160 643Q160 655 166 664T183 678Q189 681 198 681Q211 681 223 674T242 651L290 540H227L171 613ZM377 12T331 0T239 -12Q165 -12 122 24T78 134V339Q78 420 128 465T262
510Q345 510 391 466T438 342V198L170 183V144Q170 109 190 91T248 72Q303 72 379 112L413 35Q377 12 331 0ZM346 384T320 403T261 423Q218 423 194 400T170 338V268L346 278V343Q346 384 320 403Z" />
<glyph unicode="&#xe9;" glyph-name="eacute" horiz-adv-x="475" d="M288 649Q294 664 306 671T332 679Q341 679 347 676Q358 671 364 662T370 641Q370 625 359 611L303 538H240L288 649ZM377 12T331 0T239 -12Q165 -12 122 24T78 134V339Q78 420 128 465T262
510Q345 510 391 466T438 342V198L170 183V144Q170 109 190 91T248 72Q303 72 379 112L413 35Q377 12 331 0ZM346 384T320 403T261 423Q218 423 194 400T170 338V268L346 278V343Q346 384 320 403Z" />
<glyph unicode="&#xea;" glyph-name="ecircumflex" horiz-adv-x="475" d="M275 629L184 539L128 578L276 719L418 578L361 539L275 629ZM377 12T331 0T239 -12Q165 -12 122 24T78 134V339Q78 420 128 465T262 510Q345 510 391 466T438 342V198L170 183V144Q170
109 190 91T248 72Q303 72 379 112L413 35Q377 12 331 0ZM346 384T320 403T261 423Q218 423 194 400T170 338V268L346 278V343Q346 384 320 403Z" />
<glyph unicode="&#xeb;" glyph-name="edieresis" horiz-adv-x="537" d="M269 539T257 551T245 580Q245 597 257 609T286 621Q303 621 315 609T327 580Q327 563 315 551T286 539Q269 539 257 551ZM186 562T174 551T145 539Q129 539 117 551T105 579Q105 596 116
608T145 620Q162 620 174 608T186 579Q186 562 174 551ZM334 12T288 0T196 -12Q122 -12 79 24T35 134V339Q35 420 85 465T219 510Q302 510 348 466T395 342V198L127 183V144Q127 109 147 91T205 72Q260 72 336 112L370 35Q334 12 288 0ZM303 384T277 403T218 423Q175
423 151 400T127 338V268L303 278V343Q303 384 277 403Z" />
<glyph unicode="&#xec;" glyph-name="igrave" horiz-adv-x="264" d="M90 613Q79 627 79 643Q79 655 85 664T102 678Q108 681 117 681Q130 681 142 674T161 651L209 540H146L90 613ZM136 501H227V0H136V501Z" />
<glyph unicode="&#xed;" glyph-name="iacute" horiz-adv-x="264" d="M144 649Q150 664 162 671T188 679Q197 679 203 676Q214 671 220 662T226 641Q226 625 215 611L159 538H96L144 649ZM78 501H169V0H78V501Z" />
<glyph unicode="&#xee;" glyph-name="icircumflex" horiz-adv-x="228" d="M111 629L20 539L-36 578L112 719L254 578L197 539L111 629ZM65 501H156V0H65V501Z" />
<glyph unicode="&#xef;" glyph-name="idieresis" horiz-adv-x="337" d="M242 539T230 551T218 580Q218 597 230 609T259 621Q276 621 288 609T300 580Q300 563 288 551T259 539Q242 539 230 551ZM159 562T147 551T118 539Q102 539 90 551T78 579Q78 596 89 608T118
620Q135 620 147 608T159 579Q159 562 147 551ZM142 501H233V0H142V501Z" />
<glyph unicode="&#xf1;" glyph-name="ntilde" horiz-adv-x="484" d="M394 541T345 541Q328 541 313 546T271 562Q227 583 199 583Q162 583 126 546L92 602Q137 654 187 654Q205 654 221 649T263 633Q289 623 303 619T332 614Q369 614 401 649L437 593Q394 541
345 541ZM356 325Q356 373 328 397T255 422Q209 422 168 400V0H78V501H161L168 485Q188 496 216 502T274 509Q325 509 362 491Q402 473 424 437T447 346V0H356V325Z" />
<glyph unicode="&#xf2;" glyph-name="ograve" horiz-adv-x="488" d="M170 613Q159 627 159 643Q159 655 165 664T182 678Q188 681 197 681Q210 681 222 674T241 651L289 540H226L170 613ZM451 100T405 45T266 -10Q173 -10 126 45T78 184V316Q78 411 126 461T266
512Q353 512 402 460T451 316V184Q451 100 405 45ZM361 422T266 422Q223 422 196 398T169 316V174Q169 127 196 103T266 78Q309 78 335 103T361 174V316Q361 422 266 422Z" />
<glyph unicode="&#xf3;" glyph-name="oacute" horiz-adv-x="488" d="M287 649Q293 664 305 671T331 679Q340 679 346 676Q357 671 363 662T369 641Q369 625 358 611L302 538H239L287 649ZM451 100T405 45T266 -10Q173 -10 126 45T78 184V316Q78 411 126 461T266
512Q353 512 402 460T451 316V184Q451 100 405 45ZM361 422T266 422Q223 422 196 398T169 316V174Q169 127 196 103T266 78Q309 78 335 103T361 174V316Q361 422 266 422Z" />
<glyph unicode="&#xf4;" glyph-name="ocircumflex" horiz-adv-x="488" d="M271 629L180 539L124 578L272 719L414 578L357 539L271 629ZM451 100T405 45T266 -10Q173 -10 126 45T78 184V316Q78 411 126 461T266 512Q353 512 402 460T451 316V184Q451 100 405 45ZM361
422T266 422Q223 422 196 398T169 316V174Q169 127 196 103T266 78Q309 78 335 103T361 174V316Q361 422 266 422Z" />
<glyph unicode="&#xf5;" glyph-name="otilde" horiz-adv-x="489" d="M403 524T354 524Q337 524 322 529T280 545Q236 566 208 566Q171 566 135 529L101 585Q147 637 196 637Q214 637 230 632T272 616Q298 606 312 602T341 597Q378 597 410 632L446 576Q403 524
354 524ZM451 100T405 45T266 -10Q173 -10 126 45T78 184V316Q78 411 126 461T266 512Q353 512 402 460T451 316V184Q451 100 405 45ZM361 422T266 422Q223 422 196 398T169 316V174Q169 127 196 103T266 78Q309 78 335 103T361 174V316Q361 422 266 422Z" />
<glyph unicode="&#xf6;" glyph-name="odieresis" horiz-adv-x="488" d="M323 539T311 551T299 580Q299 597 311 609T340 621Q357 621 369 609T381 580Q381 563 369 551T340 539Q323 539 311 551ZM240 562T228 551T199 539Q183 539 171 551T159 579Q159 596 170
608T199 620Q216 620 228 608T240 579Q240 562 228 551ZM451 100T405 45T266 -10Q173 -10 126 45T78 184V316Q78 411 126 461T266 512Q353 512 402 460T451 316V184Q451 100 405 45ZM361 422T266 422Q223 422 196 398T169 316V174Q169 127 196 103T266 78Q309 78
335 103T361 174V316Q361 422 266 422Z" />
<glyph unicode="&#xf7;" glyph-name="divide" horiz-adv-x="435" d="M222 458T208 472T194 505Q194 524 208 537T241 551Q260 551 273 538T287 505Q287 486 274 472T241 458Q222 458 208 472ZM78 423H398V346H78V423ZM222 213T208 227T194 260Q194 279 208 292T241
306Q260 306 273 293T287 260Q287 241 274 227T241 213Q222 213 208 227Z" />
<glyph unicode="&#xf8;" glyph-name="oslash" horiz-adv-x="498" d="M131 41Q105 67 92 104T79 184V316Q79 411 127 461T267 512Q300 512 329 503L366 588H456L401 461Q452 408 452 316V184Q452 100 406 45T267 -10Q231 -10 201 -1L173 -67H85L131 41ZM281 422T267
422Q224 422 197 398T170 316V174Q170 154 174 141L293 419Q281 422 267 422ZM362 339T357 359L237 81Q250 78 267 78Q310 78 336 103T362 174V316Q362 339 357 359Z" />
<glyph unicode="&#xf9;" glyph-name="ugrave" horiz-adv-x="488" d="M177 613Q166 627 166 643Q166 655 172 664T189 678Q195 681 204 681Q217 681 229 674T248 651L296 540H233L177 613ZM362 22Q344 7 319 -2T266 -11Q78 -11 78 172V501H169V180Q169 128 192
103T266 77Q316 77 338 104T360 183V501H451V0H365L362 22Z" />
<glyph unicode="&#xfa;" glyph-name="uacute" horiz-adv-x="488" d="M287 649Q293 664 305 671T331 679Q340 679 346 676Q357 671 363 662T369 641Q369 625 358 611L302 538H239L287 649ZM362 22Q344 7 319 -2T266 -11Q78 -11 78 172V501H169V180Q169 128 192
103T266 77Q316 77 338 104T360 183V501H451V0H365L362 22Z" />
<glyph unicode="&#xfb;" glyph-name="ucircumflex" horiz-adv-x="488" d="M267 629L176 539L120 578L268 719L410 578L353 539L267 629ZM362 22Q344 7 319 -2T266 -11Q78 -11 78 172V501H169V180Q169 128 192 103T266 77Q316 77 338 104T360 183V501H451V0H365L362 22Z" />
<glyph unicode="&#xfc;" glyph-name="udieresis" horiz-adv-x="488" d="M318 539T306 551T294 580Q294 597 306 609T335 621Q352 621 364 609T376 580Q376 563 364 551T335 539Q318 539 306 551ZM235 562T223 551T194 539Q178 539 166 551T154 579Q154 596 165
608T194 620Q211 620 223 608T235 579Q235 562 223 551ZM362 22Q344 7 319 -2T266 -11Q78 -11 78 172V501H169V180Q169 128 192 103T266 77Q316 77 338 104T360 183V501H451V0H365L362 22Z" />
<glyph unicode="&#xfd;" glyph-name="yacute" horiz-adv-x="541" d="M284 649Q290 664 302 671T328 679Q337 679 343 676Q354 671 360 662T366 641Q366 625 355 611L299 538H236L284 649ZM325 -133T344 -114T363 -58V18Q331 -12 261 -12Q173 -12 126 35T78 176V501H168V192Q168
129 191 103T261 77Q311 77 337 102T363 192V363Q363 418 390 459T472 510L504 438Q478 431 466 412T453 366V-61Q453 -125 425 -161T329 -210L296 -138Q325 -133 344 -114Z" />
<glyph unicode="&#xfe;" glyph-name="thorn" horiz-adv-x="492" d="M78 588H168V479Q186 492 212 500T265 509Q358 509 406 455T455 315Q455 221 404 169T269 116Q243 116 215 125T168 155V0H78V588ZM168 259T197 231T269 202Q308 202 336 229T365 317Q365 363
339 393T269 423Q230 423 200 396T168 320Q168 259 197 231Z" />
<glyph unicode="&#xff;" glyph-name="ydieresis" horiz-adv-x="541" d="M324 539T312 551T300 580Q300 597 312 609T341 621Q358 621 370 609T382 580Q382 563 370 551T341 539Q324 539 312 551ZM241 562T229 551T200 539Q184 539 172 551T160 579Q160 596 171
608T200 620Q217 620 229 608T241 579Q241 562 229 551ZM325 -133T344 -114T363 -58V18Q331 -12 261 -12Q173 -12 126 35T78 176V501H168V192Q168 129 191 103T261 77Q311 77 337 102T363 192V363Q363 418 390 459T472 510L504 438Q478 431 466 412T453 366V-61Q453
-125 425 -161T329 -210L296 -138Q325 -133 344 -114Z" />
<glyph unicode="&#x2018;" glyph-name="quoteleft" horiz-adv-x="129" d="M85 621T90 608T96 585Q95 566 82 553T49 540Q26 540 15 559T3 597Q3 629 19 656T69 713L128 684Q98 667 79 651T59 632L70 629Q85 621 90 608Z" />
<glyph unicode="&#x2019;" glyph-name="quoteright" horiz-adv-x="129" d="M31 583T50 599T70 618L59 621Q44 629 39 642T33 665Q34 684 47 697T80 710Q102 710 114 692T126 656Q127 623 111 595T60 537L1 566Q31 583 50 599Z" />
<glyph unicode="&#x201a;" glyph-name="quotesinglbase" horiz-adv-x="171" d="M34 -38T53 -22T73 -3L62 0Q47 8 42 21T36 44Q37 63 50 76T83 89Q105 89 117 71T129 35Q130 2 114 -26T63 -84L4 -55Q34 -38 53 -22Z" />
<glyph unicode="&#x201c;" glyph-name="quotedblleft" horiz-adv-x="279" d="M85 621T90 608T96 585Q95 566 82 553T49 540Q26 540 15 559T3 597Q3 629 19 656T69 713L128 684Q98 667 79 651T59 632L70 629Q85 621 90 608ZM214 621T219 608T225 585Q224 566 211
553T178 540Q155 540 144 559T132 597Q132 629 148 656T198 713L257 684Q227 667 208 651T188 632L199 629Q214 621 219 608Z" />
<glyph unicode="&#x201d;" glyph-name="quotedblright" horiz-adv-x="279" d="M32 585T51 601T71 620L60 623Q45 631 40 644T34 667Q35 686 48 699T81 712Q103 712 115 694T127 658Q128 625 112 597T61 539L2 568Q32 585 51 601ZM161 585T180 601T200 620L189
623Q174 631 169 644T163 667Q164 686 177 699T210 712Q232 712 244 694T256 658Q257 625 241 597T190 539L131 568Q161 585 180 601Z" />
<glyph unicode="&#x201e;" glyph-name="quotedblbase" horiz-adv-x="322" d="M116 -83L57 -54Q87 -37 106 -21T126 -2L115 1Q100 9 95 22T89 45Q90 65 103 78T138 90Q149 89 156 84Q167 90 182 90Q203 89 214 72T226 36Q227 3 211 -25T160 -83L131 -69L116 -83Z" />
<glyph unicode="&#x2022;" glyph-name="bullet" horiz-adv-x="472" d="M207 158T167 182T102 247T78 337Q78 386 102 426T166 491T256 515Q305 515 346 491T411 427T435 337Q435 288 411 247T346 182T256 158Q207 158 167 182Z" />
<glyph unicode="&#x2039;" glyph-name="guilsinglleft" horiz-adv-x="291" d="M42 267V268L229 455L289 395L159 267L288 136L229 80L42 267Z" />
<glyph unicode="&#x203a;" glyph-name="guilsinglright" horiz-adv-x="297" d="M131 267L1 395L61 455L248 268V267L61 80L2 136L131 267Z" />
</font>
</defs>
</svg>
