<svg width="375" height="400" fill="none" xmlns="http://www.w3.org/2000/svg"><path fill="#F2F2F2" d="M0 0h375v400H0z"/><path d="M173.75 198a5 5 0 10-.001-10.001A5 5 0 00173.75 198zM167.5 216.75h40a1.249 1.249 0 001.089-1.862l-11.25-20a1.263 1.263 0 00-.811-.606 1.268 1.268 0 00-.993.193l-28.75 20a1.255 1.255 0 00-.477 1.4 1.25 1.25 0 001.192.875z" fill="#959595"/><path d="M213.75 178h-52.5a1.252 1.252 0 00-1.25 1.25v42.5a1.252 1.252 0 001.25 1.25h52.5a1.252 1.252 0 001.25-1.25v-42.5a1.252 1.252 0 00-1.25-1.25zm-1.25 42.5h-50v-40h50v40z" fill="#959595"/></svg> 