<svg width="6" height="11" viewBox="0 0 6 11" fill="none" xmlns="http://www.w3.org/2000/svg">
<path d="M5.95864 9.85439C5.95868 9.76409 5.94093 9.67466 5.90641 9.59122C5.87189 9.50779 5.82126 9.43197 5.75743 9.36809L1.65993 5.27105L5.75743 1.17401C5.88641 1.04504 5.95886 0.870115 5.95886 0.68772C5.95886 0.505325 5.88641 0.330401 5.75743 0.201429C5.62846 0.072456 5.45354 -2.20885e-08 5.27114 -3.00612e-08C5.08875 -3.80339e-08 4.91382 0.072456 4.78485 0.201429L0.201516 4.78476C0.137629 4.84861 0.0869491 4.92442 0.0523713 5.00786C0.0177939 5.0913 -3.08748e-06 5.18073 -3.09143e-06 5.27105C-3.09538e-06 5.36137 0.0177939 5.45081 0.0523713 5.53425C0.0869491 5.61769 0.137629 5.6935 0.201516 5.75734L4.78485 10.3407C4.881 10.4369 5.00353 10.5024 5.13693 10.529C5.27033 10.5555 5.40862 10.5419 5.53428 10.4898C5.65994 10.4378 5.76734 10.3496 5.84288 10.2365C5.91842 10.1234 5.9587 9.99041 5.95864 9.85439Z" fill="white"/>
</svg>
