<svg width="17" height="16" viewBox="0 0 17 16" fill="none" xmlns="http://www.w3.org/2000/svg">
<path d="M11.2004 1C10.5697 1.00808 9.95045 1.16954 9.3961 1.47043C8.84174 1.77132 8.36895 2.2026 8.01852 2.72705C7.66809 2.2026 7.19529 1.77132 6.64094 1.47043C6.08659 1.16954 5.46733 1.00808 4.83664 1C3.81451 1.00623 2.83658 1.4176 2.11734 2.14389C1.39811 2.87017 0.99629 3.85207 1.00003 4.87421C1.00003 8.74792 8.01852 14.5357 8.01852 14.5357C8.01852 14.5357 15.037 8.74792 15.037 4.87421C15.0408 3.85207 14.6389 2.87017 13.9197 2.14389C13.2005 1.4176 12.2225 1.00623 11.2004 1V1Z" stroke="#212A2F" stroke-width="2" stroke-miterlimit="10" stroke-linecap="square"/>
</svg>
