<svg width="44" height="44" viewBox="0 0 44 44" fill="none" xmlns="http://www.w3.org/2000/svg">
<circle cx="22" cy="22" r="22" transform="rotate(180 22 22)" fill="white"/>
<path d="M24.8894 26.2846L20.5355 22.0735L24.728 17.7002C24.9058 17.5082 25.0013 17.2537 24.9941 16.9916C24.9869 16.7295 24.8775 16.4807 24.6895 16.2988C24.5015 16.117 24.2498 16.0166 23.9888 16.0192C23.7278 16.0219 23.4782 16.1274 23.2939 16.3131L18.4111 21.4067C18.228 21.5977 18.1279 21.854 18.1329 22.1191C18.1379 22.3842 18.2475 22.6365 18.4376 22.8204L23.5085 27.7251C23.6022 27.8188 23.7134 27.8929 23.8359 27.943C23.9583 27.9931 24.0894 28.0182 24.2216 28.0169C24.3538 28.0155 24.4844 27.9877 24.6058 27.9351C24.7271 27.8825 24.8369 27.8062 24.9286 27.7106C25.0203 27.6149 25.0921 27.5019 25.1398 27.378C25.1876 27.2542 25.2103 27.1221 25.2066 26.9894C25.203 26.8566 25.1731 26.7259 25.1186 26.6049C25.0641 26.484 24.9862 26.3751 24.8894 26.2846Z" fill="#212A2F"/>
</svg>
