<svg width="11" height="6" viewBox="0 0 11 6" fill="none" xmlns="http://www.w3.org/2000/svg">
  <path d="M9.85439 0.000220299C9.76409 0.000179387 9.67466 0.0179277 9.59122 0.0524514C9.50779 0.0869752 9.43197 0.137598 9.36809 0.201429L5.27105 4.29893L1.17401 0.201429C1.04504 0.0724561 0.870115 0 0.68772 0C0.505325 0 0.330401 0.0724561 0.201429 0.201429C0.072456 0.330401 0 0.505326 0 0.68772C0 0.870115 0.072456 1.04504 0.201429 1.17401L4.78476 5.75735C4.84861 5.82123 4.92442 5.87191 5.00786 5.90649C5.0913 5.94107 5.18073 5.95887 5.27105 5.95887C5.36137 5.95887 5.45081 5.94107 5.53425 5.90649C5.61769 5.87191 5.6935 5.82123 5.75734 5.75735L10.3407 1.17401C10.4369 1.07786 10.5024 0.955333 10.529 0.82193C10.5555 0.688527 10.5419 0.550246 10.4898 0.424583C10.4378 0.298921 10.3496 0.191525 10.2365 0.115986C10.1234 0.0404463 9.99041 0.000158644 9.85439 0.000220299Z" fill="white"/>
</svg>
