<svg width="18" height="18" viewBox="0 0 18 18" fill="none" xmlns="http://www.w3.org/2000/svg">
<path d="M11.6821 10.8819L10.3781 12.5119C8.35849 11.325 6.67536 9.64204 5.48824 7.62254L7.11834 6.31857C7.30934 6.16561 7.44433 5.95371 7.50222 5.71595C7.56011 5.4782 7.53765 5.22796 7.43834 5.00432L5.95224 1.6585C5.84573 1.41846 5.65742 1.22407 5.42088 1.10999C5.18434 0.99591 4.91497 0.969568 4.66081 1.03566L1.83262 1.76936C1.56867 1.83831 1.3392 2.0017 1.18768 2.22855C1.03616 2.45541 0.973124 2.72996 1.01052 3.00018C1.50692 6.53481 3.14058 9.81176 5.66453 12.3356C8.18849 14.8595 11.4655 16.4931 15.0002 16.9895C15.2704 17.0268 15.5449 16.9637 15.7717 16.8122C15.9984 16.6607 16.1618 16.4313 16.2307 16.1675L16.9644 13.339C17.0304 13.0849 17.004 12.8156 16.89 12.5791C16.7761 12.3426 16.5818 12.1543 16.342 12.0476L12.9964 10.5619C12.7728 10.4625 12.5225 10.44 12.2848 10.4979C12.047 10.5558 11.8351 10.6908 11.6821 10.8819Z" stroke="#434944" stroke-width="2" stroke-miterlimit="10" stroke-linecap="square"/>
</svg>
