<svg width="22" height="22" fill="none" xmlns="http://www.w3.org/2000/svg"><path d="M22 11c0 6.087-4.913 11-11 11S0 17.087 0 11 4.913 0 11 0s11 4.913 11 11zM9.533 5.207l.66 6.893c.074.293.147.88.734.88h.22c.586 0 .733-.587.806-.953l.514-6.747c.073-.513 0-.88-.22-1.173-.22-.294-.587-.44-.954-.44h-.513c-.44 0-.733.146-.953.366-.294.294-.367.734-.294 1.174zm3.007 11.44c0-.88-.513-1.394-1.393-1.394h-.294c-.88 0-1.393.514-1.393 1.394v.22c0 .88.513 1.393 1.393 1.393h.294c.88 0 1.393-.513 1.393-1.393v-.22z" fill="#fff"/></svg>