<svg width="15" height="12" viewBox="0 0 15 12" fill="none" xmlns="http://www.w3.org/2000/svg">
<path d="M12.8665 0.616255L5.00027 8.4825L2.13401 5.61625C1.89826 5.38856 1.58251 5.26256 1.25476 5.26541C0.927017 5.26826 0.613502 5.39972 0.381742 5.63148C0.149981 5.86324 0.0185203 6.17676 0.0156723 6.5045C0.0128242 6.83225 0.138817 7.148 0.366515 7.38375L4.11652 11.1338C4.35092 11.3681 4.66881 11.4997 5.00027 11.4997C5.33172 11.4997 5.64961 11.3681 5.88402 11.1338L14.634 2.38375C14.8617 2.148 14.9877 1.83225 14.9849 1.5045C14.982 1.17676 14.8505 0.863242 14.6188 0.631482C14.387 0.399722 14.0735 0.268261 13.7458 0.265413C13.418 0.262565 13.1023 0.388558 12.8665 0.616255Z" fill="#212A2F"/>
</svg>
