<svg width="7" height="11" viewBox="0 0 7 11" fill="none" xmlns="http://www.w3.org/2000/svg">
<path d="M0.291876 1.14561C0.291835 1.23591 0.309584 1.32534 0.344108 1.40878C0.378631 1.49221 0.429254 1.56803 0.493085 1.63191L4.59059 5.72895L0.493085 9.82599C0.364113 9.95496 0.291656 10.1299 0.291656 10.3123C0.291656 10.4947 0.364113 10.6696 0.493085 10.7986C0.622058 10.9275 0.796982 11 0.979377 11C1.16177 11 1.3367 10.9275 1.46567 10.7986L6.049 6.21524C6.11289 6.15139 6.16357 6.07558 6.19815 5.99214C6.23272 5.9087 6.25052 5.81927 6.25052 5.72895C6.25052 5.63863 6.23272 5.54919 6.19815 5.46575C6.16357 5.38231 6.11289 5.3065 6.049 5.24266L1.46567 0.659322C1.36952 0.56311 1.24699 0.497582 1.11359 0.471029C0.980183 0.444476 0.841902 0.458092 0.716239 0.510153C0.590577 0.562214 0.483181 0.65038 0.407642 0.763496C0.332102 0.876613 0.291815 1.00959 0.291876 1.14561Z" fill="#212A2F"/>
</svg>

