<svg width="22" height="20" fill="none" xmlns="http://www.w3.org/2000/svg"><path d="M21.924 17.752c0 .62-.306 1.24-.764 1.628a3.137 3.137 0 01-1.91.62H2.673c-.763 0-1.374-.155-1.91-.62A2.194 2.194 0 010 17.752v-.078c0-.155 0-.31.076-.387.077-.388.23-.775.459-1.163L8.785 1.55C9.319.62 10.083 0 11 0c.917 0 1.68.62 2.215 1.55l8.327 14.574c.229.388.382.775.458 1.163-.076.077-.076.232-.076.465 0-.078 0-.078 0 0 0-.078 0-.078 0 0zM9.854 6.822l.459 5.349c0 .232.076.697.534.697H11c.458 0 .535-.465.611-.697l.458-5.35c.077-.387 0-.697-.152-.93a1.158 1.158 0 00-.764-.31h-.382c-.306 0-.611.078-.764.31-.153.233-.23.543-.153.93zm2.292 8.914c0-.697-.382-1.085-1.07-1.085h-.229c-.687 0-1.07.388-1.07 1.085v.233c0 .698.383 1.085 1.07 1.085h.23c.687 0 1.069-.387 1.069-1.085v-.233z" fill="#fff"/></svg>
