<svg xmlns="http://www.w3.org/2000/svg" width="44" height="50" viewBox="0 0 44 50">
    <defs>
        <linearGradient id="a" x1="-3.667%" x2="90.3%" y1="11.815%" y2="77.323%">
            <stop offset="0%" stop-color="#FFE000"/>
            <stop offset="100%" stop-color="#BF3FF5"/>
        </linearGradient>
        <linearGradient id="b" x1="91.183%" x2="22.673%" y1="21.55%" y2="92.953%">
            <stop offset="51%" stop-color="#10C1B4"/>
            <stop offset="57%" stop-color="#1AC2B9"/>
            <stop offset="67%" stop-color="#33C4C6"/>
            <stop offset="79%" stop-color="#5DC8DC"/>
            <stop offset="88%" stop-color="#81CBEF"/>
        </linearGradient>
        <linearGradient id="c" x1="57.108%" x2="29.357%" y1="99.861%" y2="-3.399%">
            <stop offset="0%" stop-color="#BF3FF5"/>
            <stop offset="25%" stop-color="#6864EA"/>
            <stop offset="52%" stop-color="#0A8DDF"/>
            <stop offset="68%" stop-color="#31A1E4"/>
            <stop offset="98%" stop-color="#81CBEF"/>
        </linearGradient>
    </defs>
    <g fill="none" fill-rule="nonzero">
        <path fill="url(#a)" d="M16.794 24.81a8.015 8.015 0 1 1 0 16.03 12.595 12.595 0 0 0 5.763-23.794A16.832 16.832 0 0 0 8.78 18.065v14.76a8.015 8.015 0 0 1 8.015-8.016z"/>
        <path fill="url(#b)" d="M22.557 17.046a12.595 12.595 0 0 1-5.763 23.794 8.015 8.015 0 0 1-8.015-8.016 12.595 12.595 0 0 0 23.79 5.771 16.794 16.794 0 0 0-10.012-21.55z"/>
        <path fill="url(#c)" d="M21.511 45.42C14.504 45.492 8.78 39.56 8.78 32.557V0H0v32.824a16.794 16.794 0 0 0 32.569 5.771A12.595 12.595 0 0 1 21.51 45.42z"/>
        <path fill="#0191DE" d="M39 40.511a4.344 4.344 0 0 1 3.225 1.333 4.725 4.725 0 0 1 0 6.522A4.378 4.378 0 0 1 39 49.672a4.5 4.5 0 0 1-3.324-1.306A4.58 4.58 0 0 1 39 40.511z"/>
    </g>
</svg>